<svg width="34" height="35" viewBox="0 0 34 35" fill="none" xmlns="http://www.w3.org/2000/svg">
<mask id="mask0_983_9529" style="mask-type:luminance" maskUnits="userSpaceOnUse" x="0" y="0" width="34" height="35">
<path d="M0 0.5H34V34.5H0V0.5Z" fill="white"/>
</mask>
<g mask="url(#mask0_983_9529)">
<path d="M11.2971 8.09502C11.1977 8.19837 11.1166 8.31788 11.0573 8.44844L11.0501 8.44128L1.01474 31.0468L1.02458 31.0566C0.838479 31.4172 1.14985 32.1509 1.78779 32.7898C2.42485 33.4268 3.15853 33.7382 3.51911 33.5521L3.52806 33.561L26.1354 23.5265L26.1282 23.5185C26.2606 23.4559 26.3805 23.3798 26.4816 23.2787C27.8792 21.8811 25.6128 17.3493 21.4201 13.1565C17.2274 8.96291 12.6946 6.69744 11.2971 8.09502Z" fill="#DD882E"/>
<path d="M12.5264 12.1311L1.26706 30.4785L1.01474 31.0467L1.02458 31.0556C0.838479 31.4171 1.14985 32.1499 1.78779 32.7887C1.97964 32.9784 2.19247 33.1456 2.42216 33.2871L16.1054 16.6047L12.5264 12.1311Z" fill="#EAA459"/>
<path d="M21.4844 13.0867C25.6629 17.2669 27.9829 21.7227 26.6641 23.0406C25.3461 24.3586 20.8903 22.0394 16.7092 17.861C12.5299 13.6808 10.2108 9.2241 11.5287 7.90526C12.8475 6.58732 17.3033 8.90737 21.4844 13.0867Z" fill="#A05404"/>
<path d="M17.5279 13.5716C17.4366 13.6457 17.3316 13.7008 17.2188 13.7338C17.1061 13.7668 16.9879 13.7771 16.8711 13.764C16.0945 13.6799 15.4414 13.4097 14.9841 12.9829C14.5001 12.5311 14.2612 11.9253 14.3265 11.3169C14.441 10.2504 15.5111 9.27154 17.3355 9.46928C18.045 9.54533 18.3618 9.31717 18.3716 9.20802C18.3841 9.09975 18.1238 8.80896 17.4151 8.73202C16.6376 8.64791 15.9854 8.3777 15.5272 7.95091C15.0432 7.49907 14.8034 6.89244 14.8696 6.28491C14.9859 5.21838 16.0551 4.23954 17.8777 4.43728C18.3949 4.49275 18.6669 4.38538 18.7823 4.31649C18.8754 4.26012 18.912 4.20644 18.9156 4.17601C18.9255 4.06775 18.6687 3.77696 17.9574 3.70002C17.7251 3.67014 17.5138 3.5504 17.3688 3.3665C17.2239 3.1826 17.1568 2.9492 17.1819 2.71638C17.2071 2.48357 17.3226 2.26991 17.5035 2.12126C17.6844 1.9726 17.9164 1.90081 18.1497 1.92128C19.9723 2.11723 20.8098 3.30096 20.6944 4.36838C20.5789 5.43491 19.5097 6.41286 17.6854 6.21602C17.1682 6.15965 16.8971 6.26701 16.7817 6.33591C16.6895 6.39228 16.6519 6.44686 16.6484 6.47638C16.6367 6.58554 16.8953 6.87633 17.6066 6.95328C19.4292 7.14923 20.2667 8.33296 20.1512 9.40038C20.0358 10.4669 18.9657 11.4458 17.1431 11.248C16.626 11.1925 16.354 11.299 16.2377 11.3679C16.1455 11.4243 16.1097 11.4789 16.1061 11.5093C16.0945 11.6175 16.3531 11.9083 17.0635 11.9853C17.2398 12.0036 17.4067 12.074 17.5429 12.1875C17.6791 12.301 17.7784 12.4524 17.8282 12.6226C17.878 12.7927 17.876 12.9738 17.8226 13.1428C17.7691 13.3119 17.6665 13.4611 17.5279 13.5716Z" fill="#8D8ED8"/>
<path d="M28.3283 21.846C30.0936 21.3476 31.3114 22.135 31.6013 23.1684C31.8912 24.2009 31.263 25.5082 29.4995 26.0038C28.8106 26.1971 28.6039 26.5264 28.6316 26.6319C28.662 26.7375 29.0119 26.9111 29.699 26.716C31.4635 26.2204 32.6812 27.0077 32.9711 28.0403C33.2637 29.0737 32.6338 30.3791 30.8685 30.8766C30.1804 31.0698 29.9728 31.4 30.0033 31.5047C30.0328 31.6094 30.3817 31.782 31.0698 31.5897C31.1839 31.5544 31.304 31.5423 31.4229 31.5542C31.5418 31.566 31.6571 31.6016 31.762 31.6588C31.867 31.7159 31.9594 31.7935 32.0338 31.8869C32.1083 31.9804 32.1633 32.0878 32.1955 32.2028C32.2278 32.3179 32.2367 32.4382 32.2217 32.5568C32.2067 32.6753 32.1682 32.7896 32.1083 32.893C32.0484 32.9964 31.9684 33.0867 31.873 33.1587C31.7776 33.2307 31.6688 33.2828 31.5529 33.312C29.7903 33.8086 28.5708 33.023 28.2791 31.9887C27.9892 30.9562 28.6182 29.6508 30.3844 29.1533C31.0725 28.9592 31.28 28.6308 31.2496 28.5252C31.2201 28.4205 30.872 28.246 30.184 28.4393C28.4187 28.9368 27.2009 28.1512 26.9102 27.1169C26.6194 26.0835 27.2484 24.778 29.0146 24.2806C29.7008 24.0882 29.9084 23.7572 29.8789 23.6534C29.8485 23.5469 29.5013 23.3733 28.8124 23.5675C28.6978 23.6043 28.5771 23.6177 28.4573 23.6068C28.3375 23.5959 28.2211 23.561 28.1151 23.5041C28.0091 23.4472 27.9157 23.3695 27.8404 23.2756C27.7651 23.1818 27.7095 23.0738 27.6769 22.9579C27.6444 22.8421 27.6355 22.7209 27.6508 22.6016C27.6662 22.4823 27.7054 22.3673 27.7662 22.2635C27.8271 22.1597 27.9082 22.0692 28.0047 21.9975C28.1013 21.9258 28.2114 21.8742 28.3283 21.846Z" fill="#53D86A"/>
<path d="M21.4745 19.4336C21.2892 19.4333 21.1086 19.3756 20.9574 19.2684C20.8063 19.1612 20.6922 19.0098 20.6308 18.835C20.5693 18.6602 20.5636 18.4706 20.6144 18.2924C20.6652 18.1142 20.77 17.9562 20.9144 17.8401C21.1094 17.6835 25.7621 14.0294 32.3375 14.9698C32.4538 14.9863 32.5657 15.0256 32.6667 15.0855C32.7678 15.1453 32.8561 15.2245 32.9266 15.3185C32.9971 15.4124 33.0483 15.5194 33.0774 15.6332C33.1065 15.747 33.1129 15.8654 33.0962 15.9817C33.0801 16.0983 33.041 16.2105 32.9813 16.3119C32.9215 16.4133 32.8423 16.5018 32.7481 16.5724C32.6539 16.6429 32.5467 16.6941 32.4326 16.723C32.3185 16.7518 32.1998 16.7577 32.0834 16.7404C26.2738 15.9155 22.074 19.2045 22.0328 19.2376C21.8745 19.3648 21.6775 19.4339 21.4745 19.4336Z" fill="#8D8ED8"/>
<path d="M6.04293 15.7109C5.90336 15.711 5.76573 15.6784 5.64101 15.6158C5.5163 15.5531 5.40796 15.4622 5.32467 15.3502C5.24138 15.2382 5.18544 15.1083 5.16132 14.9708C5.1372 14.8334 5.14558 14.6922 5.18577 14.5585C6.19951 11.1827 7.1184 5.79546 5.98924 4.39162C5.86219 4.23236 5.67251 4.07578 5.23587 4.10888C4.39572 4.17241 4.47624 5.94399 4.47714 5.96189C4.4885 6.08042 4.47609 6.20003 4.44063 6.31371C4.40517 6.42739 4.34738 6.53284 4.27064 6.6239C4.19389 6.71495 4.09975 6.78977 3.99372 6.84396C3.88769 6.89816 3.77191 6.93065 3.65316 6.93952C3.53441 6.9484 3.41508 6.93348 3.30218 6.89564C3.18927 6.8578 3.08505 6.79781 2.99563 6.71917C2.90621 6.64053 2.83338 6.54484 2.78142 6.43769C2.72946 6.33055 2.69941 6.21411 2.69303 6.0952C2.59998 4.86136 2.98472 2.48494 5.10077 2.32478C6.04561 2.2532 6.8303 2.58157 7.38503 3.27052C9.50645 5.91088 7.35282 13.5663 6.89919 15.0739C6.84383 15.258 6.73066 15.4193 6.57644 15.5341C6.42222 15.6488 6.23515 15.7108 6.04293 15.7109Z" fill="#53D86A"/>
<path d="M25.0525 9.89422C25.0525 10.0705 25.0177 10.2451 24.9502 10.408C24.8826 10.5708 24.7837 10.7188 24.659 10.8434C24.5343 10.968 24.3863 11.0669 24.2233 11.1343C24.0604 11.2017 23.8858 11.2364 23.7095 11.2363C23.5332 11.2363 23.3587 11.2015 23.1958 11.134C23.0329 11.0664 22.885 10.9675 22.7603 10.8428C22.6357 10.7181 22.5369 10.57 22.4695 10.4071C22.402 10.2442 22.3674 10.0696 22.3674 9.89333C22.3676 9.53726 22.5091 9.19582 22.761 8.94413C23.0128 8.69244 23.3544 8.5511 23.7104 8.55122C24.0665 8.55134 24.4079 8.6929 24.6596 8.94476C24.9113 9.19662 25.0527 9.53816 25.0525 9.89422Z" fill="#3B914A"/>
<path d="M4.47364 17.4996C4.47358 17.7346 4.42723 17.9674 4.33722 18.1845C4.24721 18.4017 4.11532 18.599 3.94907 18.7651C3.78282 18.9313 3.58547 19.0631 3.36828 19.153C3.15109 19.2429 2.91833 19.2891 2.68327 19.2891C2.44822 19.289 2.21547 19.2426 1.99833 19.1526C1.78119 19.0626 1.58391 18.9307 1.41774 18.7645C1.25157 18.5982 1.11977 18.4009 1.02988 18.1837C0.93998 17.9665 0.89374 17.7337 0.893799 17.4987C0.893918 17.024 1.08261 16.5688 1.41837 16.2332C1.75413 15.8976 2.20945 15.7091 2.68417 15.7092C3.15888 15.7093 3.61411 15.898 3.9497 16.2338C4.28529 16.5696 4.47376 17.0249 4.47364 17.4996Z" fill="#595BD4"/>
<path d="M31.3157 18.8415C31.3157 19.0178 31.2809 19.1924 31.2134 19.3552C31.1458 19.5181 31.0469 19.6661 30.9222 19.7907C30.7975 19.9153 30.6494 20.0142 30.4865 20.0816C30.3236 20.149 30.149 20.1837 29.9727 20.1836C29.7964 20.1835 29.6218 20.1488 29.459 20.0812C29.2961 20.0137 29.1481 19.9148 29.0235 19.7901C28.8989 19.6653 28.8001 19.5173 28.7326 19.3544C28.6652 19.1915 28.6306 19.0169 28.6306 18.8406C28.6307 18.4845 28.7723 18.1431 29.0242 17.8914C29.276 17.6397 29.6175 17.4984 29.9736 17.4985C30.3297 17.4986 30.6711 17.6402 30.9228 17.892C31.1745 18.1439 31.3158 18.4854 31.3157 18.8415Z" fill="#3B914A"/>
<path d="M23.2632 29.5798C23.2632 29.7561 23.2284 29.9306 23.1609 30.0935C23.0933 30.2564 22.9944 30.4043 22.8697 30.529C22.745 30.6536 22.5969 30.7524 22.434 30.8199C22.2711 30.8873 22.0965 30.9219 21.9202 30.9219C21.7439 30.9218 21.5694 30.887 21.4065 30.8195C21.2436 30.752 21.0957 30.653 20.971 30.5283C20.8464 30.4036 20.7476 30.2556 20.6801 30.0927C20.6127 29.9298 20.5781 29.7552 20.5781 29.5789C20.5782 29.2228 20.7198 28.8814 20.9717 28.6297C21.2235 28.378 21.5651 28.2367 21.9211 28.2368C22.2772 28.2369 22.6186 28.3784 22.8703 28.6303C23.122 28.8822 23.2633 29.2237 23.2632 29.5798Z" fill="#3B914A"/>
<path d="M27.7368 4.9742C27.7368 5.20925 27.6904 5.442 27.6004 5.65914C27.5104 5.87628 27.3785 6.07356 27.2123 6.23973C27.046 6.4059 26.8486 6.5377 26.6315 6.62759C26.4143 6.71749 26.1815 6.76373 25.9465 6.76367C25.7114 6.76361 25.4787 6.71726 25.2615 6.62725C25.0444 6.53724 24.8471 6.40535 24.6809 6.2391C24.5148 6.07285 24.383 5.8755 24.2931 5.65831C24.2032 5.44113 24.1569 5.20836 24.157 4.9733C24.1571 4.49859 24.3458 4.04336 24.6816 3.70777C25.0173 3.37218 25.4726 3.18371 25.9474 3.18383C26.4221 3.18395 26.8773 3.37264 27.2129 3.7084C27.5485 4.04416 27.7369 4.49948 27.7368 4.9742Z" fill="#FE9526"/>
<path d="M31.3157 8.99969C31.3157 9.176 31.2809 9.35057 31.2134 9.51343C31.1458 9.67629 31.0469 9.82426 30.9222 9.94889C30.7975 10.0735 30.6494 10.1724 30.4865 10.2398C30.3236 10.3072 30.149 10.3419 29.9727 10.3418C29.7964 10.3417 29.6218 10.307 29.459 10.2394C29.2961 10.1719 29.1481 10.073 29.0235 9.94826C28.8989 9.82355 28.8001 9.67551 28.7326 9.5126C28.6652 9.3497 28.6306 9.1751 28.6306 8.9988C28.6307 8.64273 28.7723 8.30129 29.0242 8.0496C29.276 7.79791 29.6175 7.65657 29.9736 7.65669C30.3297 7.65681 30.6711 7.79837 30.9228 8.05023C31.1745 8.30209 31.3158 8.64362 31.3157 8.99969Z" fill="#FE9526"/>
<path d="M28.6316 12.5798C28.6316 12.7561 28.5968 12.9306 28.5293 13.0935C28.4617 13.2564 28.3628 13.4043 28.2381 13.529C28.1134 13.6536 27.9654 13.7524 27.8024 13.8199C27.6395 13.8873 27.4649 13.9219 27.2886 13.9219C27.1123 13.9218 26.9378 13.887 26.7749 13.8195C26.612 13.752 26.4641 13.653 26.3394 13.5283C26.2148 13.4036 26.116 13.2556 26.0486 13.0927C25.9811 12.9298 25.9465 12.7552 25.9465 12.5789C25.9467 12.2228 26.0882 11.8814 26.3401 11.6297C26.5919 11.378 26.9335 11.2367 27.2895 11.2368C27.6456 11.2369 27.987 11.3784 28.2387 11.6303C28.4904 11.8822 28.6318 12.2237 28.6316 12.5798Z" fill="#FE9526"/>
<path d="M8.94731 22.4216C8.94725 22.5979 8.91247 22.7724 8.84495 22.9353C8.77742 23.0982 8.67848 23.2461 8.55377 23.3708C8.42906 23.4954 8.28103 23.5942 8.11812 23.6616C7.95521 23.7291 7.78062 23.7637 7.60431 23.7637C7.42801 23.7636 7.25344 23.7288 7.09057 23.6613C6.92771 23.5938 6.77974 23.4948 6.65512 23.3701C6.53049 23.2454 6.43165 23.0974 6.36423 22.9345C6.29682 22.7716 6.26215 22.597 6.26221 22.4207C6.26233 22.0646 6.40389 21.7232 6.65575 21.4715C6.90761 21.2198 7.24914 21.0784 7.60521 21.0786C7.96127 21.0787 8.30271 21.2202 8.5544 21.4721C8.8061 21.724 8.94743 22.0655 8.94731 22.4216Z" fill="#FE9526"/>
</g>
</svg>
