<svg width="34" height="34" viewBox="0 0 34 34" fill="none" xmlns="http://www.w3.org/2000/svg">
<path d="M22.9358 2.83337H11.0641C5.90742 2.83337 2.83325 5.90754 2.83325 11.0642V22.9217C2.83325 28.0925 5.90742 31.1667 11.0641 31.1667H22.9216C28.0783 31.1667 31.1524 28.0925 31.1524 22.9359V11.0642C31.1666 5.90754 28.0924 2.83337 22.9358 2.83337ZM19.5358 21.25C19.9466 21.6609 19.9466 22.3409 19.5358 22.7517C19.3233 22.9642 19.0541 23.0634 18.7849 23.0634C18.5158 23.0634 18.2466 22.9642 18.0341 22.7517L13.0333 17.7509C12.6224 17.34 12.6224 16.66 13.0333 16.2492L18.0341 11.2484C18.4449 10.8375 19.1249 10.8375 19.5358 11.2484C19.9466 11.6592 19.9466 12.3392 19.5358 12.75L15.2858 17L19.5358 21.25Z" fill="#FCDF46"/>
</svg>
