<svg width="16" height="16" viewBox="0 0 16 16" fill="none" xmlns="http://www.w3.org/2000/svg">
<path d="M5.33333 4.66666H8M5.33333 7.33333H10.6667M5.33333 10H10.6667M3.33333 1.33333H12.6667C13.403 1.33333 14 1.93028 14 2.66666V12.7696C14 13.693 13.0839 14.3369 12.215 14.0241L11.1739 13.6493C10.8485 13.5321 10.4904 13.546 10.1751 13.6879L8.54715 14.4204C8.19919 14.577 7.80081 14.577 7.45285 14.4204L5.82492 13.6879C5.50959 13.546 5.15148 13.5321 4.82614 13.6493L3.78496 14.0241C2.91608 14.3369 2 13.693 2 12.7696V2.66666C2 1.93028 2.59695 1.33333 3.33333 1.33333Z" stroke="#28303F" stroke-linecap="round"/>
</svg>
