<svg width="50" height="50" viewBox="0 0 50 50" fill="none" xmlns="http://www.w3.org/2000/svg">
<g clip-path="url(#clip0_61_712)">
<path d="M25 37.4944C31.9036 37.4944 37.5 31.8979 37.5 24.9944C37.5 18.0908 31.9036 12.4944 25 12.4944C18.0964 12.4944 12.5 18.0908 12.5 24.9944C12.5 31.8979 18.0964 37.4944 25 37.4944Z" fill="white"/>
<path d="M25 12.5H46.647C44.4535 8.6994 41.298 5.54327 37.4977 3.34901C33.6975 1.15474 29.3865 -0.000306115 24.9983 6.0854e-08C20.6101 0.000306237 16.2993 1.15596 12.4994 3.35075C8.69943 5.54555 5.54434 8.70212 3.35132 12.5031L14.1749 31.25L14.1845 31.2475C13.0835 29.3489 12.5025 27.1935 12.5 24.9986C12.4975 22.8038 13.0737 20.6471 14.1705 18.746C15.2673 16.8448 16.8458 15.2664 18.7471 14.1699C20.6484 13.0733 22.8051 12.4973 25 12.5Z" fill="url(#paint0_linear_61_712)"/>
<path d="M25.0001 34.8959C30.4654 34.8959 34.8959 30.4654 34.8959 25.0001C34.8959 19.5348 30.4654 15.1042 25.0001 15.1042C19.5348 15.1042 15.1042 19.5348 15.1042 25.0001C15.1042 30.4654 19.5348 34.8959 25.0001 34.8959Z" fill="#1A73E8"/>
<path d="M35.8244 31.2532L25.0008 50.0002C29.389 50.0008 33.7001 48.846 37.5004 46.6521C41.3008 44.4581 44.4566 41.3022 46.6504 37.5017C48.8442 33.7013 49.9988 29.3902 49.998 25.002C49.9972 20.6138 48.8411 16.3031 46.6459 12.5034H24.9989L24.9963 12.5131C27.1912 12.5089 29.3483 13.0833 31.2504 14.1786C33.1524 15.2739 34.732 16.8512 35.8301 18.7516C36.9282 20.652 37.5058 22.8084 37.5048 25.0032C37.5038 27.198 36.9242 29.3538 35.8244 31.2532Z" fill="url(#paint1_linear_61_712)"/>
<path d="M14.1756 31.2532L3.35204 12.5062C1.15738 16.3062 0.00187254 20.6171 0.001709 25.0053C0.00154547 29.3935 1.15673 33.7044 3.35111 37.5046C5.54549 41.3048 8.70171 44.4602 12.5024 46.6537C16.3031 48.8471 20.6143 50.0012 25.0026 50L35.8261 31.253L35.8191 31.2459C34.7253 33.1488 33.1492 34.7297 31.2497 35.8292C29.3501 36.9288 27.1943 37.5081 24.9995 37.5089C22.8046 37.5096 20.6484 36.9317 18.7481 35.8334C16.8478 34.7352 15.2706 33.1553 14.1756 31.2532Z" fill="url(#paint2_linear_61_712)"/>
</g>
<defs>
<linearGradient id="paint0_linear_61_712" x1="3.35132" y1="15.625" x2="46.647" y2="15.625" gradientUnits="userSpaceOnUse">
<stop stop-color="#D93025"/>
<stop offset="1" stop-color="#EA4335"/>
</linearGradient>
<linearGradient id="paint1_linear_61_712" x1="21.5854" y1="49.6659" x2="43.2333" y2="12.1707" gradientUnits="userSpaceOnUse">
<stop stop-color="#FCC934"/>
<stop offset="1" stop-color="#FBBC04"/>
</linearGradient>
<linearGradient id="paint2_linear_61_712" x1="27.7063" y1="48.439" x2="6.0584" y2="10.9437" gradientUnits="userSpaceOnUse">
<stop stop-color="#1E8E3E"/>
<stop offset="1" stop-color="#34A853"/>
</linearGradient>
<clipPath id="clip0_61_712">
<rect width="50" height="50" fill="white"/>
</clipPath>
</defs>
</svg>
