<svg width="51" height="50" viewBox="0 0 51 50" fill="none" xmlns="http://www.w3.org/2000/svg">
<path d="M43.0215 4.18749C39.7849 2.23125 36.3242 0.809536 32.7061 0C32.2618 1.0378 31.7426 2.43366 31.3847 3.54406C27.5386 2.79685 23.7279 2.79685 19.9525 3.54406C19.5946 2.43366 19.0637 1.0378 18.6154 0C14.9934 0.809536 11.5287 2.23647 8.29215 4.19785C1.76392 16.9417 -0.00577521 29.3691 0.879074 41.62C5.20894 45.797 9.4051 48.3344 13.5304 49.9949C14.549 48.1839 15.4574 46.2589 16.24 44.23C14.7496 43.4984 13.322 42.5955 11.9732 41.5474C12.331 41.2049 12.681 40.8468 13.0192 40.4784C21.2463 45.4494 30.1853 45.4494 38.3141 40.4784C38.6563 40.8468 39.0062 41.2049 39.3602 41.5474C38.0073 42.6007 36.5759 43.5035 35.0854 44.2352C35.868 46.2589 36.7725 48.1891 37.795 50C41.9243 48.3396 46.1244 45.8022 50.4542 41.62C51.4925 27.4181 48.6806 15.1049 43.0215 4.18749ZM17.3609 34.0858C14.8912 34.0858 12.8658 31.1073 12.8658 27.4803C12.8658 23.8533 14.8479 20.8697 17.3609 20.8697C19.8739 20.8697 21.8992 23.8481 21.8559 27.4803C21.8598 31.1073 19.8739 34.0858 17.3609 34.0858ZM33.9725 34.0858C31.5028 34.0858 29.4774 31.1073 29.4774 27.4803C29.4774 23.8533 31.4594 20.8697 33.9725 20.8697C36.4854 20.8697 38.5108 23.8481 38.4675 27.4803C38.4675 31.1073 36.4854 34.0858 33.9725 34.0858Z" fill="#5865F2"/>
</svg>
