<svg width="28" height="28" viewBox="0 0 28 28" fill="none" xmlns="http://www.w3.org/2000/svg">
<path d="M10.2111 24.5H22.1667M13.7486 6.197C13.7486 6.197 13.7486 8.10406 15.6556 10.0111C17.5627 11.9182 19.4698 11.9182 19.4698 11.9182M6.20631 20.9861L10.2111 20.414C10.7888 20.3314 11.3242 20.0638 11.7368 19.6511L21.3768 10.0111C22.4301 8.95788 22.4301 7.25024 21.3768 6.19699L19.4698 4.28993C18.4165 3.23669 16.7089 3.23669 15.6556 4.28993L6.01561 13.93C5.60297 14.3426 5.33531 14.8779 5.25278 15.4556L4.68066 19.4604C4.55352 20.3504 5.31635 21.1132 6.20631 20.9861Z" stroke="#28303F" stroke-width="1.75" stroke-linecap="round"/>
</svg>
