<svg width="28" height="28" viewBox="0 0 28 28" fill="none" xmlns="http://www.w3.org/2000/svg">
<path d="M18.1766 14.0002C18.1766 16.3102 16.3099 18.1768 13.9999 18.1768C11.6899 18.1768 9.82324 16.3102 9.82324 14.0002C9.82324 11.6902 11.6899 9.82349 13.9999 9.82349C16.3099 9.82349 18.1766 11.6902 18.1766 14.0002Z" stroke="#292D32" stroke-width="1.75" stroke-linecap="round" stroke-linejoin="round"/>
<path d="M14.0001 23.6482C18.1184 23.6482 21.9567 21.2215 24.6284 17.0215C25.6784 15.3765 25.6784 12.6115 24.6284 10.9665C21.9567 6.76651 18.1184 4.33984 14.0001 4.33984C9.88173 4.33984 6.0434 6.76651 3.37173 10.9665C2.32173 12.6115 2.32173 15.3765 3.37173 17.0215C6.0434 21.2215 9.88173 23.6482 14.0001 23.6482Z" stroke="#292D32" stroke-width="1.75" stroke-linecap="round" stroke-linejoin="round"/>
</svg>
