<svg width="52" height="51" viewBox="0 0 52 51" fill="none" xmlns="http://www.w3.org/2000/svg">
<path opacity="0.25" d="M6.875 8.5C6.875 4.97918 9.72918 2.125 13.25 2.125H33.9844C35.6751 2.125 37.2966 2.79665 38.4922 3.99219L43.2578 8.75781C44.4534 9.95335 45.125 11.5749 45.125 13.2656V42.5C45.125 46.0208 42.2708 48.875 38.75 48.875H13.25C9.72919 48.875 6.875 46.0208 6.875 42.5V8.5Z" fill="#12715B"/>
<path d="M32.375 4.02009C32.375 2.97346 33.2235 2.125 34.2701 2.125C35.7779 2.125 37.224 2.72398 38.2902 3.79017L43.4598 8.95983C44.526 10.026 45.125 11.4721 45.125 12.9799C45.125 14.0265 44.2765 14.875 43.2299 14.875H34.5C33.3264 14.875 32.375 13.9236 32.375 12.75V4.02009Z" fill="#12715B"/>
<path d="M25.1866 19.2862C24.936 19.3899 24.7011 19.5437 24.4974 19.7474L18.1224 26.1224C17.2925 26.9523 17.2925 28.2977 18.1224 29.1276C18.9523 29.9575 20.2977 29.9575 21.1276 29.1276L23.875 26.3802V36.125C23.875 37.2986 24.8264 38.25 26 38.25C27.1736 38.25 28.125 37.2986 28.125 36.125V26.3802L30.8724 29.1276C31.7023 29.9575 33.0477 29.9575 33.8776 29.1276C34.7075 28.2977 34.7075 26.9523 33.8776 26.1224L27.5026 19.7474C26.8765 19.1213 25.9568 18.9676 25.1866 19.2862Z" fill="#12715B"/>
</svg>
