<svg width="24" height="25" viewBox="0 0 24 25" fill="none" xmlns="http://www.w3.org/2000/svg">
<g clip-path="url(#clip0_424_14070)">
<path d="M23.7663 12.6777C23.7663 11.862 23.7001 11.0419 23.559 10.2394H12.2402V14.8604H18.722C18.453 16.3507 17.5888 17.6691 16.3233 18.5069V21.5052H20.1903C22.4611 19.4152 23.7663 16.3287 23.7663 12.6777Z" fill="#4285F4"/>
<path d="M12.2401 24.4021C15.4766 24.4021 18.2059 23.3395 20.1945 21.5052L16.3276 18.5069C15.2517 19.2388 13.8627 19.6533 12.2445 19.6533C9.11388 19.6533 6.45946 17.5412 5.50705 14.7016H1.5166V17.7925C3.55371 21.8447 7.7029 24.4021 12.2401 24.4021Z" fill="#34A853"/>
<path d="M5.50277 14.7016C5.00011 13.2112 5.00011 11.5974 5.50277 10.1071V7.01611H1.51674C-0.185266 10.4069 -0.185266 14.4017 1.51674 17.7925L5.50277 14.7016Z" fill="#FBBC04"/>
<path d="M12.2401 5.15097C13.9509 5.12451 15.6044 5.76827 16.8434 6.94997L20.2695 3.52392C18.1001 1.48681 15.2208 0.36684 12.2401 0.402115C7.7029 0.402115 3.55371 2.95953 1.5166 7.01611L5.50264 10.1071C6.45064 7.26304 9.10947 5.15097 12.2401 5.15097Z" fill="#EA4335"/>
</g>
<defs>
<clipPath id="clip0_424_14070">
<rect width="24" height="24" fill="white" transform="translate(0 0.401306)"/>
</clipPath>
</defs>
</svg>
