<svg width="40" height="40" viewBox="0 0 40 40" fill="none" xmlns="http://www.w3.org/2000/svg">
<path d="M7.75 4C7.75 2.20508 9.20508 0.75 11 0.75H27C27.1212 0.75 27.2375 0.798159 27.3232 0.883885L38.1161 11.6768C38.2018 11.7625 38.25 11.8788 38.25 12V36C38.25 37.7949 36.7949 39.25 35 39.25H11C9.20507 39.25 7.75 37.7949 7.75 36V4Z" fill="white" stroke="#D0D5DD" stroke-width="1.5"/>
<path d="M27 0.5V8C27 10.2091 28.7909 12 31 12H38.5" stroke="#D0D5DD" stroke-width="1.5"/>
<rect y="16.5" width="37" height="19" rx="2" fill="#444CE7"/>
<path d="M3.90656 29.5V22.2H5.64656V25.17H8.54656V22.2H10.2866V29.5H8.54656V26.44H5.64656V29.5H3.90656ZM11.3007 23.69V22.2H17.4307V23.69H15.2407V29.5H13.5007V23.69H11.3007ZM18.4476 22.2H20.9076L22.5476 27.65L22.6176 28.03L22.6876 27.66L24.3576 22.21L26.7576 22.2V29.5H25.0776V24.46L25.1276 23.5L24.8976 24.48L23.3376 29.5H21.8676L20.3076 24.49L20.0876 23.54L20.1376 24.46V29.5H18.4476V22.2ZM28.1253 29.5V22.2H29.8953V27.89H33.4253V29.5H28.1253Z" fill="white"/>
</svg>
