<svg width="100" height="100" viewBox="0 0 100 100" fill="none" xmlns="http://www.w3.org/2000/svg">
<path fill-rule="evenodd" clip-rule="evenodd" d="M50.0006 91.6667C73.0125 91.6667 91.6673 73.0119 91.6673 50C91.6673 26.9881 73.0125 8.33334 50.0006 8.33334C26.9888 8.33334 8.33398 26.9881 8.33398 50C8.33398 73.0119 26.9888 91.6667 50.0006 91.6667ZM69.1341 39.4187C70.1937 38.0564 69.9482 36.093 68.5859 35.0334C67.2236 33.9738 65.2602 34.2193 64.2006 35.5816L47.5048 57.0477C47.1335 57.525 46.4352 57.5869 45.9857 57.1824L35.4245 47.6774C34.1417 46.5228 32.1658 46.6268 31.0112 47.9096C29.8567 49.1925 29.9607 51.1684 31.2435 52.3229L41.8047 61.828C44.951 64.6597 49.8394 64.2261 52.4382 60.8848L69.1341 39.4187Z" fill="#FCDF46"/>
</svg>
