<svg width="50" height="50" viewBox="0 0 50 50" fill="none" xmlns="http://www.w3.org/2000/svg">
<path opacity="0.4" d="M45.8327 25C45.8327 36.5059 36.5053 45.8333 24.9993 45.8333C13.4934 45.8333 4.16602 36.5059 4.16602 25C4.16602 13.4941 13.4934 4.16666 24.9993 4.16666C36.5053 4.16666 45.8327 13.4941 45.8327 25Z" fill="#FCDF46"/>
<path fill-rule="evenodd" clip-rule="evenodd" d="M34.292 17.5167C34.9731 18.0465 35.0959 19.0282 34.5661 19.7094L26.2181 30.4424C24.9187 32.1131 22.4745 32.3299 20.9014 30.914L15.6208 26.1615C14.9793 25.5842 14.9274 24.5962 15.5046 23.9548C16.0819 23.3134 17.0699 23.2614 17.7113 23.8387L22.9919 28.5912C23.2166 28.7935 23.5658 28.7625 23.7514 28.5238L32.0993 17.7908C32.6291 17.1096 33.6108 16.9869 34.292 17.5167Z" fill="#FCDF46"/>
</svg>
