<svg width="51" height="51" viewBox="0 0 51 51" fill="none" xmlns="http://www.w3.org/2000/svg">
<g clip-path="url(#clip0_61_1014)">
<circle cx="25.3333" cy="25.5" r="25" fill="url(#paint0_linear_61_1014)"/>
<path fill-rule="evenodd" clip-rule="evenodd" d="M32.0697 8.83337H18.5967C13.1212 8.83337 8.6665 13.288 8.6665 18.7636V32.2365C8.6665 37.712 13.1212 42.1667 18.5967 42.1667H32.0697C37.5452 42.1667 41.9998 37.712 41.9998 32.2365V18.7636C41.9998 13.288 37.5451 8.83337 32.0697 8.83337ZM38.6465 32.2365C38.6465 35.8688 35.7019 38.8134 32.0697 38.8134H18.5967C14.9644 38.8134 12.0198 35.8688 12.0198 32.2365V18.7636C12.0198 15.1312 14.9644 12.1867 18.5967 12.1867H32.0697C35.7019 12.1867 38.6465 15.1312 38.6465 18.7636V32.2365ZM25.3331 16.8788C20.5794 16.8788 16.712 20.7463 16.712 25.5C16.712 30.2536 20.5794 34.1211 25.3331 34.1211C30.0869 34.1211 33.9543 30.2537 33.9543 25.5C33.9543 20.7462 30.0869 16.8788 25.3331 16.8788ZM25.3331 30.7679C22.4238 30.7679 20.0653 28.4094 20.0653 25.5C20.0653 22.5906 22.4238 20.2322 25.3331 20.2322C28.2425 20.2322 30.601 22.5906 30.601 25.5C30.601 28.4093 28.2425 30.7679 25.3331 30.7679ZM36.0369 16.9436C36.0369 18.0845 35.112 19.0094 33.9711 19.0094C32.8302 19.0094 31.9053 18.0845 31.9053 16.9436C31.9053 15.8027 32.8302 14.8778 33.9711 14.8778C35.112 14.8778 36.0369 15.8027 36.0369 16.9436Z" fill="white"/>
</g>
<defs>
<linearGradient id="paint0_linear_61_1014" x1="10.4895" y1="50.5" x2="33.1458" y2="0.500001" gradientUnits="userSpaceOnUse">
<stop stop-color="#FBD06F"/>
<stop offset="0.3" stop-color="#F16C2E"/>
<stop offset="0.6" stop-color="#C82E96"/>
<stop offset="1" stop-color="#4E6AD6"/>
</linearGradient>
<clipPath id="clip0_61_1014">
<rect width="50" height="50" fill="white" transform="translate(0.333252 0.5)"/>
</clipPath>
</defs>
</svg>
