<svg width="24" height="25" viewBox="0 0 24 25" fill="none" xmlns="http://www.w3.org/2000/svg">
<g clip-path="url(#clip0_294_3442)">
<path d="M18.4003 7.87877C18.2194 7.82717 18.0543 7.73116 17.92 7.59947C17.7857 7.46778 17.6865 7.3046 17.6313 7.12477C17.3251 6.08681 16.8115 5.12178 16.1215 4.28806C15.4315 3.45434 14.5796 2.76928 13.6172 2.27433C12.6549 1.77937 11.6021 1.48481 10.5226 1.40848C9.4431 1.33214 8.35935 1.47562 7.33691 1.83022C6.31447 2.18483 5.3746 2.74319 4.57418 3.47151C3.77377 4.19984 3.12944 5.08299 2.68019 6.06752C2.23095 7.05205 1.98612 8.1175 1.96053 9.19938C1.93494 10.2813 2.12912 11.3571 2.53132 12.3618C2.62371 12.5732 2.64361 12.8092 2.5879 13.0332C2.53219 13.2571 2.40401 13.4563 2.22332 13.5998C1.42705 14.1908 0.805363 14.986 0.424069 15.9014C0.0427744 16.8168 -0.0839466 17.8183 0.0573177 18.7998C0.277771 20.1266 0.966642 21.3305 1.9989 22.1929C3.03116 23.0552 4.33838 23.5189 5.68332 23.4998H11.0003C11.2655 23.4998 11.5199 23.3944 11.7074 23.2069C11.895 23.0193 12.0003 22.765 12.0003 22.4998C12.0003 22.2345 11.895 21.9802 11.7074 21.7927C11.5199 21.6051 11.2655 21.4998 11.0003 21.4998H5.68332C4.8196 21.5207 3.97695 21.2316 3.30808 20.6847C2.63921 20.1378 2.18839 19.3694 2.03732 18.5188C1.94151 17.8935 2.01916 17.2539 2.26179 16.6697C2.50442 16.0856 2.90273 15.5792 3.41332 15.2058C3.94964 14.8049 4.3376 14.2373 4.51625 13.592C4.69491 12.9467 4.65413 12.2604 4.40032 11.6408C3.89847 10.3155 3.87267 8.85698 4.32732 7.51477C4.69052 6.46334 5.3409 5.53464 6.2048 4.83387C7.0687 4.1331 8.11159 3.68827 9.21532 3.54977C9.47134 3.51681 9.72919 3.50011 9.98732 3.49977C11.2804 3.4955 12.54 3.9102 13.5777 4.68176C14.6153 5.45332 15.3751 6.54024 15.7433 7.77977C15.887 8.25214 16.146 8.68134 16.4969 9.02872C16.8478 9.37611 17.2795 9.63077 17.7533 9.76977C18.9128 10.1127 19.9399 10.8016 20.697 11.7444C21.4542 12.6871 21.9052 13.8387 21.9898 15.0448C22.0745 16.251 21.7886 17.4543 21.1705 18.4935C20.5524 19.5327 19.6316 20.3583 18.5313 20.8598C18.3685 20.9431 18.2324 21.0706 18.1385 21.2276C18.0446 21.3846 17.9967 21.5649 18.0003 21.7478C17.9984 21.9132 18.038 22.0765 18.1156 22.2227C18.1932 22.3689 18.3063 22.4932 18.4445 22.5843C18.5826 22.6754 18.7415 22.7303 18.9064 22.744C19.0713 22.7577 19.237 22.7298 19.3883 22.6628C23.5223 20.6758 25.7683 15.4488 22.2683 10.3988C21.3046 9.14168 19.9396 8.25238 18.4003 7.87877Z" fill="white"/>
<path d="M18.7072 17.207C18.8946 17.0194 19 16.7651 19 16.5C19 16.2348 18.8946 15.9805 18.7072 15.793L17.1212 14.207C16.5586 13.6446 15.7957 13.3286 15.0002 13.3286C14.2047 13.3286 13.4417 13.6446 12.8792 14.207L11.2932 15.793C11.111 15.9816 11.0102 16.2342 11.0125 16.4964C11.0148 16.7586 11.1199 17.0094 11.3053 17.1948C11.4908 17.3802 11.7416 17.4854 12.0038 17.4876C12.266 17.4899 12.5186 17.3891 12.7072 17.207L14.0002 15.914V23.5C14.0002 23.7652 14.1055 24.0195 14.2931 24.2071C14.4806 24.3946 14.7349 24.5 15.0002 24.5C15.2654 24.5 15.5197 24.3946 15.7073 24.2071C15.8948 24.0195 16.0002 23.7652 16.0002 23.5V15.914L17.2932 17.207C17.4807 17.3944 17.735 17.4998 18.0002 17.4998C18.2653 17.4998 18.5196 17.3944 18.7072 17.207Z" fill="white"/>
</g>
<defs>
<clipPath id="clip0_294_3442">
<rect width="24" height="24" fill="white" transform="translate(0 0.5)"/>
</clipPath>
</defs>
</svg>
