<svg width="24" height="25" viewBox="0 0 24 25" fill="none" xmlns="http://www.w3.org/2000/svg">
<path fill-rule="evenodd" clip-rule="evenodd" d="M3.29298 3.79289C2.90246 4.18342 2.90246 4.81658 3.29298 5.20711L4.29298 6.20711C4.68351 6.59763 5.31667 6.59763 5.7072 6.20711C6.09772 5.81658 6.09772 5.18342 5.7072 4.79289L4.7072 3.79289C4.31667 3.40237 3.68351 3.40237 3.29298 3.79289ZM19.293 3.79289C19.6835 3.40237 20.3167 3.40237 20.7072 3.79289C21.0977 4.18342 21.0977 4.81658 20.7072 5.20711L19.7072 6.20711C19.3167 6.59763 18.6835 6.59763 18.293 6.20711C17.9025 5.81658 17.9025 5.18342 18.293 4.79289L19.293 3.79289ZM19.7072 14.7929L20.7072 15.7929C21.0977 16.1834 21.0977 16.8166 20.7072 17.2071C20.3167 17.5976 19.6835 17.5976 19.293 17.2071L18.293 16.2071C17.9025 15.8166 17.9025 15.1834 18.293 14.7929C18.6835 14.4024 19.3167 14.4024 19.7072 14.7929ZM3.29298 17.2071C2.90246 16.8166 2.90246 16.1834 3.29298 15.7929L4.29298 14.7929C4.68351 14.4024 5.31667 14.4024 5.7072 14.7929C6.09772 15.1834 6.09772 15.8166 5.7072 16.2071L4.7072 17.2071C4.31667 17.5976 3.68351 17.5976 3.29298 17.2071ZM20.4142 11.5C20.9665 11.5001 21.4142 11.0524 21.4142 10.5001C21.4143 9.94781 20.9666 9.50007 20.4143 9.50003L20.0001 9.5C19.4478 9.49996 19.0001 9.94765 19 10.4999C19 11.0522 19.4477 11.5 20 11.5L20.4142 11.5ZM2 10.7072C2.00004 11.2595 2.44779 11.7072 3.00007 11.7071L3.41428 11.7071C3.96657 11.7071 4.41425 11.2593 4.41421 10.707C4.41417 10.1547 3.96643 9.70705 3.41414 9.70709L2.99993 9.70712C2.44765 9.70716 1.99996 10.1549 2 10.7072ZM15.4366 15.4189C16.9865 14.3341 18 12.5354 18 10.5C18 7.18629 15.3137 4.5 12 4.5C8.68629 4.5 6 7.18629 6 10.5C6 12.5354 7.0135 14.3341 8.56337 15.4189C8.21123 15.8497 8 16.4002 8 17C8 18.2099 8.85949 19.2191 10.0012 19.4502C10.0004 19.4667 10 19.4833 10 19.5C10 20.0523 10.4477 20.5 11 20.5H13C13.5523 20.5 14 20.0523 14 19.5C14 19.4833 13.9996 19.4667 13.9988 19.4502C15.1405 19.2191 16 18.2099 16 17C16 16.4002 15.7888 15.8497 15.4366 15.4189ZM12 14.5C14.2091 14.5 16 12.7091 16 10.5C16 8.29086 14.2091 6.5 12 6.5C9.79086 6.5 8 8.29086 8 10.5C8 12.7091 9.79086 14.5 12 14.5ZM12 16.5H11.9146H10.5C10.2239 16.5 10 16.7239 10 17C10 17.2761 10.2239 17.5 10.5 17.5H11.9146H12.0854H13.5C13.7761 17.5 14 17.2761 14 17C14 16.7239 13.7761 16.5 13.5 16.5H12.0854H12Z" fill="white"/>
</svg>
