<svg width="65" height="64" viewBox="0 0 65 64" fill="none" xmlns="http://www.w3.org/2000/svg">
<path opacity="0.4" fill-rule="evenodd" clip-rule="evenodd" d="M32.498 3.33331C33.6026 3.33331 34.498 4.22874 34.498 5.33331V13.3333C34.498 14.4379 33.6026 15.3333 32.498 15.3333C31.3935 15.3333 30.498 14.4379 30.498 13.3333V5.33331C30.498 4.22874 31.3935 3.33331 32.498 3.33331Z" fill="#28303F"/>
<path opacity="0.4" fill-rule="evenodd" clip-rule="evenodd" d="M32.498 48.6667C33.6026 48.6667 34.498 49.5621 34.498 50.6667V58.6667C34.498 59.7712 33.6026 60.6667 32.498 60.6667C31.3935 60.6667 30.498 59.7712 30.498 58.6667V50.6667C30.498 49.5621 31.3935 48.6667 32.498 48.6667Z" fill="#28303F"/>
<path opacity="0.4" fill-rule="evenodd" clip-rule="evenodd" d="M12.2248 11.729C13.0058 10.948 14.2721 10.948 15.0532 11.729L20.71 17.3859C21.4911 18.1669 21.4911 19.4332 20.71 20.2143C19.929 20.9953 18.6627 20.9953 17.8816 20.2143L12.2248 14.5574C11.4437 13.7764 11.4437 12.5101 12.2248 11.729Z" fill="#28303F"/>
<path opacity="0.4" fill-rule="evenodd" clip-rule="evenodd" d="M44.2834 43.785C45.0644 43.0039 46.3307 43.0039 47.1118 43.785L52.7686 49.4418C53.5497 50.2229 53.5497 51.4892 52.7686 52.2703C51.9876 53.0513 50.7213 53.0513 49.9402 52.2703L44.2834 46.6134C43.5023 45.8324 43.5023 44.566 44.2834 43.785Z" fill="#28303F"/>
<path opacity="0.4" fill-rule="evenodd" clip-rule="evenodd" d="M61.166 32C61.166 33.1045 60.2706 34 59.166 34L51.166 34C50.0614 34 49.166 33.1045 49.166 32C49.166 30.8954 50.0614 30 51.166 30L59.166 30C60.2706 30 61.166 30.8954 61.166 32Z" fill="#28303F"/>
<path opacity="0.4" fill-rule="evenodd" clip-rule="evenodd" d="M15.832 32C15.832 33.1045 14.9366 34 13.832 34L5.83203 34C4.72746 34 3.83203 33.1045 3.83203 32C3.83203 30.8954 4.72746 30 5.83203 30L13.832 30C14.9366 30 15.832 30.8954 15.832 32Z" fill="#28303F"/>
<path fill-rule="evenodd" clip-rule="evenodd" d="M52.7677 11.7293C53.5488 12.5104 53.5488 13.7767 52.7677 14.5577L47.1109 20.2146C46.3298 20.9956 45.0635 20.9956 44.2824 20.2146C43.5014 19.4335 43.5014 18.1672 44.2824 17.3862L49.9393 11.7293C50.7204 10.9483 51.9867 10.9483 52.7677 11.7293Z" fill="#FCDF46"/>
<path opacity="0.4" fill-rule="evenodd" clip-rule="evenodd" d="M20.715 43.7853C21.496 44.5663 21.496 45.8327 20.715 46.6137L15.0581 52.2706C14.2771 53.0516 13.0108 53.0516 12.2297 52.2706C11.4487 51.4895 11.4487 50.2232 12.2297 49.4421L17.8866 43.7853C18.6676 43.0042 19.9339 43.0042 20.715 43.7853Z" fill="#28303F"/>
</svg>
