<svg width="20" height="20" viewBox="0 0 20 20" fill="none" xmlns="http://www.w3.org/2000/svg">
<path d="M10.0001 13.542C7.81675 13.542 6.04175 11.767 6.04175 9.58366V5.00033C6.04175 2.81699 7.81675 1.04199 10.0001 1.04199C12.1834 1.04199 13.9584 2.81699 13.9584 5.00033V9.58366C13.9584 11.767 12.1834 13.542 10.0001 13.542ZM10.0001 2.29199C8.50841 2.29199 7.29175 3.50866 7.29175 5.00033V9.58366C7.29175 11.0753 8.50841 12.292 10.0001 12.292C11.4917 12.292 12.7084 11.0753 12.7084 9.58366V5.00033C12.7084 3.50866 11.4917 2.29199 10.0001 2.29199Z" fill="#9BA0A3"/>
<path d="M10 16.4587C6.14167 16.4587 3 13.317 3 9.45866V8.04199C3 7.70033 3.28333 7.41699 3.625 7.41699C3.96667 7.41699 4.25 7.70033 4.25 8.04199V9.45866C4.25 12.6253 6.83333 15.2087 10 15.2087C13.1667 15.2087 15.75 12.6253 15.75 9.45866V8.04199C15.75 7.70033 16.0333 7.41699 16.375 7.41699C16.7167 7.41699 17 7.70033 17 8.04199V9.45866C17 13.317 13.8583 16.4587 10 16.4587Z" fill="#9BA0A3"/>
<path d="M11.1584 5.98294C11.0917 5.98294 11.0167 5.97461 10.9417 5.94961C10.3334 5.72461 9.66673 5.72461 9.05839 5.94961C8.73339 6.06628 8.37506 5.89961 8.25839 5.57461C8.14173 5.24961 8.30839 4.89128 8.63339 4.77461C9.51673 4.45794 10.4917 4.45794 11.3751 4.77461C11.7001 4.89128 11.8667 5.24961 11.7501 5.57461C11.6501 5.82461 11.4084 5.98294 11.1584 5.98294Z" fill="#9BA0A3"/>
<path d="M10.6666 7.74961C10.6082 7.74961 10.5582 7.74128 10.4999 7.72461C10.1666 7.63294 9.8249 7.63294 9.49157 7.72461C9.15823 7.81628 8.81657 7.61628 8.7249 7.28294C8.63323 6.95794 8.83323 6.61628 9.16657 6.52461C9.70823 6.37461 10.2916 6.37461 10.8332 6.52461C11.1666 6.61628 11.3666 6.95794 11.2749 7.29128C11.1999 7.56628 10.9416 7.74961 10.6666 7.74961Z" fill="#9BA0A3"/>
<path d="M10 18.958C9.65833 18.958 9.375 18.6747 9.375 18.333V15.833C9.375 15.4913 9.65833 15.208 10 15.208C10.3417 15.208 10.625 15.4913 10.625 15.833V18.333C10.625 18.6747 10.3417 18.958 10 18.958Z" fill="#9BA0A3"/>
</svg>
