<svg width="114" height="40" viewBox="0 0 114 40" fill="none" xmlns="http://www.w3.org/2000/svg">
<mask id="mask0_132_5537" style="mask-type:luminance" maskUnits="userSpaceOnUse" x="2" y="9" width="19" height="22">
<path d="M2.5625 9.83069H20.7982V30.6762H2.5625V9.83069Z" fill="white"/>
</mask>
<g mask="url(#mask0_132_5537)">
<path d="M19.9601 9.82678C20.3805 9.82678 20.724 10.1706 20.724 10.5907V29.9296C20.724 30.3497 20.3805 30.6927 19.9601 30.6927H15.1343C14.7142 30.6927 14.3704 30.3489 14.3704 29.9296V23.2968C14.3704 22.8767 14.1986 22.8309 13.9888 23.1944L10.0413 30.0312C9.83146 30.3947 9.31589 30.6927 8.8958 30.6927H3.08779C2.66809 30.6927 2.49598 30.3947 2.70544 30.0312L13.9888 10.4891C14.1986 10.1252 14.3704 9.82755 14.3704 9.82755C14.3704 9.82678 14.7142 9.82678 15.1343 9.82678H19.9601Z" fill="#5DD89D"/>
</g>
<mask id="mask1_132_5537" style="mask-type:luminance" maskUnits="userSpaceOnUse" x="14" y="9" width="19" height="22">
<path d="M14.5879 9.83069H32.7277V30.6762H14.5879V9.83069Z" fill="white"/>
</mask>
<g mask="url(#mask1_132_5537)">
<path d="M31.9955 9.82678C32.4156 9.82678 32.7595 10.1706 32.7595 10.5907V29.9296C32.7595 30.3497 32.4156 30.6927 31.9955 30.6927H27.1698C26.7493 30.6927 26.4058 30.3489 26.4058 29.9296V23.2968C26.4058 22.8767 26.2341 22.8309 26.0243 23.1944L22.0768 30.0312C21.8669 30.3947 21.3521 30.6927 20.9317 30.6927H15.1233C14.7028 30.6927 14.5311 30.3947 14.7409 30.0312L26.0246 10.4891C26.2345 10.1252 26.4062 9.82755 26.4062 9.82755C26.4062 9.82678 26.7501 9.82678 27.1701 9.82678H31.9955Z" fill="#FCDF46"/>
</g>
<mask id="mask2_132_5537" style="mask-type:luminance" maskUnits="userSpaceOnUse" x="2" y="9" width="19" height="22">
<path d="M2.5625 9.83069H20.7982V30.6762H2.5625V9.83069Z" fill="white"/>
</mask>
<g mask="url(#mask2_132_5537)">
<path d="M13.9888 23.1948L10.0413 30.032C9.83146 30.3955 9.31589 30.6935 8.8958 30.6935H3.08779C2.66809 30.6935 2.49598 30.3955 2.70544 30.032L13.9888 10.4891C14.1986 10.1252 14.3704 9.82755 14.3704 9.82755C14.3704 9.82678 14.7142 9.82678 15.1343 9.82678H19.9601C20.3805 9.82678 20.724 10.1706 20.724 10.5907V17.1915L14.3711 28.1957V23.2972C14.3711 22.8771 14.1994 22.8309 13.9888 23.1948Z" fill="#5DD89D"/>
</g>
<path d="M41.9538 31.0001L46.4155 9.89005H52.2489L53.1874 25.6721H53.3174L61.2445 9.89005H67.3523L62.8906 31.0001H58.8476L60.9413 21.0082C61.0857 20.344 61.2493 19.6317 61.4322 18.8712C61.6151 18.1108 61.8028 17.3599 61.9953 16.6187C62.1878 15.8775 62.3611 15.2181 62.5151 14.6405H62.3852L54.1693 31.0001H50.1119L49.2311 14.6405H49.1156C49.0675 15.0641 48.9856 15.6368 48.8701 16.3588C48.7546 17.0808 48.6198 17.8653 48.4658 18.7124C48.3214 19.5499 48.1626 20.3729 47.9893 21.1815L45.9245 31.0001H41.9538ZM67.9443 31.0001L72.4349 9.89005H76.8532L72.3482 31.0001H67.9443ZM77.4452 31.0001L81.907 9.89005H86.3253L82.6289 27.3037H90.0218L89.2421 31.0001H77.4452ZM101.631 31.2889C99.9174 31.2889 98.4783 30.9568 97.3136 30.2926C96.1584 29.6284 95.2824 28.6947 94.6856 27.4914C94.0888 26.2785 93.7904 24.8635 93.7904 23.2463C93.7904 22.1489 93.8867 21.0515 94.0792 19.9542C94.2813 18.8568 94.5797 17.7979 94.9744 16.7775C95.3787 15.7572 95.8841 14.809 96.4905 13.933C97.1066 13.057 97.8285 12.2918 98.6564 11.6372C99.4842 10.9826 100.423 10.4724 101.472 10.1066C102.521 9.74084 103.686 9.55795 104.966 9.55795C107.527 9.55795 109.452 10.2799 110.742 11.7238C112.042 13.1581 112.691 15.0689 112.691 17.4562C112.691 18.6017 112.595 19.7376 112.402 20.8638C112.22 21.9901 111.931 23.0682 111.536 24.0982C111.151 25.1282 110.655 26.0812 110.049 26.9572C109.452 27.8235 108.745 28.584 107.926 29.2385C107.108 29.8835 106.174 30.3889 105.125 30.7547C104.086 31.1108 102.921 31.2889 101.631 31.2889ZM101.949 27.5347C102.526 27.5347 103.08 27.4288 103.609 27.2171C104.138 27.0053 104.634 26.7021 105.096 26.3074C105.558 25.9031 105.977 25.4122 106.352 24.8346C106.738 24.2474 107.065 23.588 107.334 22.8564C107.604 22.1152 107.811 21.3018 107.955 20.4162C108.109 19.5306 108.186 18.5824 108.186 17.5717C108.186 16.2722 107.883 15.2325 107.277 14.4528C106.68 13.6731 105.789 13.2833 104.605 13.2833C103.999 13.2833 103.417 13.4036 102.858 13.6442C102.31 13.8849 101.799 14.2266 101.328 14.6694C100.866 15.1122 100.447 15.6368 100.071 16.2433C99.696 16.8497 99.3735 17.5236 99.104 18.2648C98.8345 19.006 98.6275 19.7953 98.4831 20.6328C98.3484 21.4703 98.281 22.3414 98.281 23.2463C98.281 24.18 98.4254 24.9694 98.7142 25.6143C99.0029 26.2496 99.4217 26.7309 99.9704 27.0582C100.519 27.3759 101.178 27.5347 101.949 27.5347Z" fill="#072032"/>
</svg>
