<svg width="411" height="131" viewBox="0 0 411 131" fill="none" xmlns="http://www.w3.org/2000/svg">
<path d="M155.96 105V37.8H169.272V52.136L166.84 53.672C167.523 51.4533 168.589 49.32 170.04 47.272C171.576 45.224 173.411 43.432 175.544 41.896C177.763 40.2747 180.109 38.9947 182.584 38.056C185.144 37.1173 187.747 36.648 190.392 36.648C194.232 36.648 197.603 37.288 200.504 38.568C203.405 39.848 205.795 41.768 207.672 44.328C209.549 46.888 210.915 50.088 211.768 53.928L209.72 53.416L210.616 51.24C211.555 49.2773 212.835 47.4427 214.456 45.736C216.163 43.944 218.083 42.3653 220.216 41C222.349 39.6347 224.611 38.568 227 37.8C229.389 37.032 231.736 36.648 234.04 36.648C239.075 36.648 243.213 37.672 246.456 39.72C249.784 41.768 252.259 44.8827 253.88 49.064C255.587 53.2453 256.44 58.4507 256.44 64.68V105H243.128V65.448C243.128 61.608 242.616 58.4933 241.592 56.104C240.653 53.6293 239.203 51.7947 237.24 50.6C235.277 49.4053 232.76 48.808 229.688 48.808C227.299 48.808 225.037 49.2347 222.904 50.088C220.856 50.856 219.064 51.9653 217.528 53.416C215.992 54.8667 214.797 56.5733 213.944 58.536C213.091 60.4133 212.664 62.504 212.664 64.808V105H199.352V65.192C199.352 61.6933 198.84 58.7493 197.816 56.36C196.792 53.8853 195.299 52.008 193.336 50.728C191.373 49.448 188.984 48.808 186.168 48.808C183.779 48.808 181.56 49.2347 179.512 50.088C177.464 50.856 175.672 51.9653 174.136 53.416C172.6 54.7813 171.405 56.4453 170.552 58.408C169.699 60.2853 169.272 62.3333 169.272 64.552V105H155.96ZM276.267 105V37.8H289.451V105H276.267ZM282.667 22.952C279.851 22.952 277.675 22.2267 276.139 20.776C274.603 19.3253 273.835 17.2773 273.835 14.632C273.835 12.1573 274.603 10.152 276.139 8.616C277.76 7.08 279.936 6.312 282.667 6.312C285.483 6.312 287.659 7.03733 289.195 8.488C290.731 9.93866 291.499 11.9867 291.499 14.632C291.499 17.1067 290.688 19.112 289.067 20.648C287.531 22.184 285.398 22.952 282.667 22.952ZM309.972 105V10.28H323.156V105H309.972ZM370.799 106.28C364.228 106.28 358.34 104.787 353.135 101.8C348.015 98.728 343.962 94.5893 340.975 89.384C337.988 84.0933 336.495 78.0773 336.495 71.336C336.495 64.5947 337.988 58.6213 340.975 53.416C343.962 48.1253 348.015 43.9867 353.135 41C358.34 37.928 364.228 36.392 370.799 36.392C377.284 36.392 383.087 37.928 388.207 41C393.412 43.9867 397.508 48.1253 400.495 53.416C403.482 58.6213 404.975 64.5947 404.975 71.336C404.975 78.0773 403.482 84.0933 400.495 89.384C397.508 94.5893 393.412 98.728 388.207 101.8C383.087 104.787 377.284 106.28 370.799 106.28ZM370.799 94.248C374.81 94.248 378.394 93.2667 381.551 91.304C384.708 89.256 387.183 86.5253 388.975 83.112C390.767 79.6133 391.62 75.688 391.535 71.336C391.62 66.8987 390.767 62.9733 388.975 59.56C387.183 56.0613 384.708 53.3307 381.551 51.368C378.394 49.4053 374.81 48.424 370.799 48.424C366.788 48.424 363.162 49.448 359.919 51.496C356.762 53.4587 354.287 56.1893 352.495 59.688C350.703 63.1013 349.85 66.984 349.935 71.336C349.85 75.688 350.703 79.6133 352.495 83.112C354.287 86.5253 356.762 89.256 359.919 91.304C363.162 93.2667 366.788 94.248 370.799 94.248Z" fill="black"/>
<rect width="131" height="131" rx="24" fill="#FCDF46"/>
<rect x="1" y="1" width="129" height="129" rx="23" fill="#FCDF46" stroke="#0B6550" stroke-width="2"/>
<path d="M40.7629 27.6717L16.5773 58.8138C15.7361 59.897 15.1753 64.4555 15 66.5994V98.5201C16.6825 105.371 21.3093 103.451 23.4124 101.634C29.7216 93.8487 42.9711 77.3434 45.4948 73.6063C48.0186 69.8693 48.6495 69.9731 48.6495 70.4921L49.1753 98.5201C50.8577 108.486 56.5361 103.191 59.1649 99.2986C64.7732 92.5511 76.8309 77.8105 80.1959 72.8278C83.5608 67.8451 84.0515 71.7897 83.8763 74.3849V100.077C85.9794 108.174 90.7113 104.489 92.8144 101.634L110.165 79.0562C115.633 71.5821 117 65.5613 117 63.4852V31.5645C114.897 24.0904 110.515 27.4122 108.588 30.0074C103.33 36.4953 91.7629 51.0283 87.5567 57.2567C83.3505 63.4852 83 59.3329 83.3505 56.4782C83.5258 52.5854 83.7711 42.4642 83.3505 33.1216C82.9299 23.7789 76.866 27.1527 73.8866 30.0074L48.6495 60.3709C48.8247 55.1806 49.0701 42.4642 48.6495 33.1216C48.2289 23.7789 43.2165 25.5956 40.7629 27.6717Z" fill="white" stroke="#0B6550" stroke-width="2"/>
</svg>
