<svg width="35" height="35" viewBox="0 0 35 35" fill="none" xmlns="http://www.w3.org/2000/svg">
<mask id="mask0_118_6276" style="mask-type:luminance" maskUnits="userSpaceOnUse" x="2" y="6" width="18" height="21">
<path d="M2.42676 6.43164H19.6934V26.1695H2.42676V6.43164Z" fill="white"/>
</mask>
<g mask="url(#mask0_118_6276)">
<path d="M18.8997 6.42969C19.2979 6.42969 19.6231 6.75526 19.6231 7.15302V25.4642C19.6231 25.862 19.2979 26.1868 18.8997 26.1868H14.3304C13.9327 26.1868 13.6071 25.8613 13.6071 25.4642V19.1839C13.6071 18.7861 13.4445 18.7428 13.2458 19.0869L9.50807 25.5605C9.30937 25.9046 8.8212 26.1868 8.42343 26.1868H2.92406C2.52666 26.1868 2.36369 25.9046 2.56203 25.5605L13.2458 7.05677C13.4445 6.71224 13.6071 6.43042 13.6071 6.43042C13.6071 6.42969 13.9327 6.42969 14.3304 6.42969H18.8997Z" fill="#5DD89D"/>
</g>
<mask id="mask1_118_6276" style="mask-type:luminance" maskUnits="userSpaceOnUse" x="13" y="6" width="18" height="21">
<path d="M13.8132 6.43164H30.9891V26.1695H13.8132V6.43164Z" fill="white"/>
</mask>
<g mask="url(#mask1_118_6276)">
<path d="M30.2958 6.42969C30.6935 6.42969 31.0191 6.75526 31.0191 7.15302V25.4642C31.0191 25.862 30.6935 26.1868 30.2958 26.1868H25.7265C25.3283 26.1868 25.0031 25.8613 25.0031 25.4642V19.1839C25.0031 18.7861 24.8405 18.7428 24.6418 19.0869L20.9041 25.5605C20.7054 25.9046 20.218 26.1868 19.8198 26.1868H14.3201C13.922 26.1868 13.7594 25.9046 13.9581 25.5605L24.6422 7.05677C24.8409 6.71224 25.0035 6.43042 25.0035 6.43042C25.0035 6.42969 25.3291 6.42969 25.7268 6.42969H30.2958Z" fill="#12715B"/>
</g>
<mask id="mask2_118_6276" style="mask-type:luminance" maskUnits="userSpaceOnUse" x="2" y="6" width="18" height="21">
<path d="M2.42676 6.43164H19.6934V26.1695H2.42676V6.43164Z" fill="white"/>
</mask>
<g mask="url(#mask2_118_6276)">
<path d="M13.2458 19.0873L9.50807 25.5612C9.30937 25.9054 8.8212 26.1876 8.42343 26.1876H2.92406C2.52666 26.1876 2.36369 25.9054 2.56203 25.5612L13.2458 7.05677C13.4445 6.71224 13.6071 6.43042 13.6071 6.43042C13.6071 6.42969 13.9327 6.42969 14.3304 6.42969H18.8997C19.2979 6.42969 19.6231 6.75526 19.6231 7.15302V13.4031L13.6078 23.8225V19.1843C13.6078 18.7865 13.4452 18.7428 13.2458 19.0873Z" fill="#5DD89D"/>
</g>
</svg>
