<svg width="159" height="39" viewBox="0 0 159 39" fill="none" xmlns="http://www.w3.org/2000/svg">
<mask id="mask0_294_3416" style="mask-type:luminance" maskUnits="userSpaceOnUse" x="2" y="9" width="18" height="21">
<path d="M2.42676 9.43127H19.6934V29.1691H2.42676V9.43127Z" fill="white"/>
</mask>
<g mask="url(#mask0_294_3416)">
<path d="M18.8997 9.42908C19.2979 9.42908 19.6231 9.75465 19.6231 10.1524V28.4636C19.6231 28.8614 19.2979 29.1862 18.8997 29.1862H14.3304C13.9327 29.1862 13.6071 28.8606 13.6071 28.4636V22.1833C13.6071 21.7855 13.4445 21.7422 13.2458 22.0863L9.50807 28.5599C9.30937 28.904 8.8212 29.1862 8.42343 29.1862H2.92406C2.52666 29.1862 2.36369 28.904 2.56203 28.5599L13.2458 10.0562C13.4445 9.71163 13.6071 9.42981 13.6071 9.42981C13.6071 9.42908 13.9327 9.42908 14.3304 9.42908H18.8997Z" fill="#5DD89D"/>
</g>
<mask id="mask1_294_3416" style="mask-type:luminance" maskUnits="userSpaceOnUse" x="13" y="9" width="18" height="21">
<path d="M13.8132 9.43127H30.9891V29.1691H13.8132V9.43127Z" fill="white"/>
</mask>
<g mask="url(#mask1_294_3416)">
<path d="M30.2958 9.42908C30.6935 9.42908 31.0191 9.75465 31.0191 10.1524V28.4636C31.0191 28.8614 30.6935 29.1862 30.2958 29.1862H25.7265C25.3283 29.1862 25.0031 28.8606 25.0031 28.4636V22.1833C25.0031 21.7855 24.8405 21.7422 24.6418 22.0863L20.9041 28.5599C20.7054 28.904 20.218 29.1862 19.8198 29.1862H14.3201C13.922 29.1862 13.7594 28.904 13.9581 28.5599L24.6422 10.0562C24.8409 9.71163 25.0035 9.42981 25.0035 9.42981C25.0035 9.42908 25.3291 9.42908 25.7268 9.42908H30.2958Z" fill="#12715B"/>
</g>
<mask id="mask2_294_3416" style="mask-type:luminance" maskUnits="userSpaceOnUse" x="2" y="9" width="18" height="21">
<path d="M2.42676 9.43127H19.6934V29.1691H2.42676V9.43127Z" fill="white"/>
</mask>
<g mask="url(#mask2_294_3416)">
<path d="M13.2458 22.0867L9.50807 28.5606C9.30937 28.9048 8.8212 29.1869 8.42343 29.1869H2.92406C2.52666 29.1869 2.36369 28.9048 2.56203 28.5606L13.2458 10.0562C13.4445 9.71163 13.6071 9.42981 13.6071 9.42981C13.6071 9.42908 13.9327 9.42908 14.3304 9.42908H18.8997C19.2979 9.42908 19.6231 9.75465 19.6231 10.1524V16.4025L13.6078 26.8219V22.1837C13.6078 21.7859 13.4452 21.7422 13.2458 22.0867Z" fill="#5DD89D"/>
</g>
<g filter="url(#filter0_d_294_3416)">
<path d="M39.7246 30L43.9492 10.0117H49.4727L50.3613 24.9551H50.4844L57.9902 10.0117H63.7734L59.5488 30H55.7207L57.7031 20.5391C57.8398 19.9102 57.9948 19.2357 58.168 18.5156C58.3411 17.7956 58.5189 17.0846 58.7012 16.3828C58.8835 15.681 59.0475 15.0566 59.1934 14.5098H59.0703L51.291 30H47.4492L46.6152 14.5098H46.5059C46.4603 14.9108 46.3828 15.4531 46.2734 16.1367C46.1641 16.8203 46.0365 17.5632 45.8906 18.3652C45.7539 19.1582 45.6035 19.9375 45.4395 20.7031L43.4844 30H39.7246ZM64.334 30L68.5859 10.0117H72.7695L68.5039 30H64.334ZM73.3301 30L77.5547 10.0117H81.7383L78.2383 26.5H85.2383L84.5 30H73.3301ZM96.2305 30.2734C94.6081 30.2734 93.2454 29.959 92.1426 29.3301C91.0488 28.7012 90.2194 27.8171 89.6543 26.6777C89.0892 25.5293 88.8066 24.1895 88.8066 22.6582C88.8066 21.6191 88.8978 20.5801 89.0801 19.541C89.2715 18.502 89.554 17.4993 89.9277 16.5332C90.3105 15.5671 90.7891 14.6693 91.3633 13.8398C91.9466 13.0104 92.6302 12.2858 93.4141 11.666C94.1979 11.0462 95.0866 10.5632 96.0801 10.2168C97.0736 9.87044 98.1764 9.69727 99.3887 9.69727C101.813 9.69727 103.636 10.3809 104.857 11.748C106.088 13.1061 106.703 14.9154 106.703 17.1758C106.703 18.2604 106.612 19.3359 106.43 20.4023C106.257 21.4688 105.983 22.4896 105.609 23.4648C105.245 24.4401 104.775 25.3424 104.201 26.1719C103.636 26.9922 102.966 27.7122 102.191 28.332C101.417 28.9427 100.533 29.4212 99.5391 29.7676C98.5547 30.1048 97.4518 30.2734 96.2305 30.2734ZM96.5312 26.7188C97.0781 26.7188 97.6022 26.6185 98.1035 26.418C98.6048 26.2174 99.0742 25.9303 99.5117 25.5566C99.9492 25.1738 100.346 24.709 100.701 24.1621C101.066 23.6061 101.376 22.9818 101.631 22.2891C101.886 21.5872 102.082 20.8171 102.219 19.9785C102.365 19.14 102.438 18.2422 102.438 17.2852C102.438 16.0547 102.15 15.0703 101.576 14.332C101.011 13.5938 100.168 13.2246 99.0469 13.2246C98.4727 13.2246 97.9212 13.3385 97.3926 13.5664C96.873 13.7943 96.39 14.1178 95.9434 14.5371C95.5059 14.9564 95.1094 15.4531 94.7539 16.0273C94.3984 16.6016 94.0931 17.2396 93.8379 17.9414C93.5827 18.6432 93.3867 19.3906 93.25 20.1836C93.1224 20.9766 93.0586 21.8014 93.0586 22.6582C93.0586 23.5423 93.1953 24.2897 93.4688 24.9004C93.7422 25.502 94.1387 25.9577 94.6582 26.2676C95.1777 26.5684 95.8021 26.7188 96.5312 26.7188Z" fill="white"/>
</g>
<defs>
<filter id="filter0_d_294_3416" x="35.7246" y="9.69727" width="74.9785" height="28.5762" filterUnits="userSpaceOnUse" color-interpolation-filters="sRGB">
<feFlood flood-opacity="0" result="BackgroundImageFix"/>
<feColorMatrix in="SourceAlpha" type="matrix" values="0 0 0 0 0 0 0 0 0 0 0 0 0 0 0 0 0 0 127 0" result="hardAlpha"/>
<feOffset dy="4"/>
<feGaussianBlur stdDeviation="2"/>
<feComposite in2="hardAlpha" operator="out"/>
<feColorMatrix type="matrix" values="0 0 0 0 0 0 0 0 0 0 0 0 0 0 0 0 0 0 0.25 0"/>
<feBlend mode="normal" in2="BackgroundImageFix" result="effect1_dropShadow_294_3416"/>
<feBlend mode="normal" in="SourceGraphic" in2="effect1_dropShadow_294_3416" result="shape"/>
</filter>
</defs>
</svg>
