<svg width="24" height="25" viewBox="0 0 24 25" fill="none" xmlns="http://www.w3.org/2000/svg">
<path d="M12.1963 2.5H11.8115C6.39277 2.5 2 6.89277 2 12.3115V12.6962C2 17.2152 5.23178 21.0876 9.67788 21.896C11.2846 22.1881 12.6881 20.7846 12.396 19.1779L12 17C11.5164 14.3399 13.8399 12.0164 16.5 12.5L18.6779 12.896C20.2846 13.1881 21.6881 11.7846 21.396 10.1779C20.5876 5.73178 16.7152 2.5 12.1963 2.5Z" stroke="#A1A1A2" stroke-width="2"/>
<path d="M14 8.5C14 9.05228 13.5523 9.5 13 9.5C12.4477 9.5 12 9.05228 12 8.5C12 7.94772 12.4477 7.5 13 7.5C13.5523 7.5 14 7.94772 14 8.5Z" fill="#A1A1A2"/>
<path d="M10 7.5C10 8.05228 9.55228 8.5 9 8.5C8.44772 8.5 8 8.05228 8 7.5C8 6.94772 8.44772 6.5 9 6.5C9.55228 6.5 10 6.94772 10 7.5Z" fill="#A1A1A2"/>
<path d="M8 10.5C8 11.0523 7.55228 11.5 7 11.5C6.44772 11.5 6 11.0523 6 10.5C6 9.94772 6.44772 9.5 7 9.5C7.55228 9.5 8 9.94772 8 10.5Z" fill="#A1A1A2"/>
<path d="M9 14.5C9 15.0523 8.55228 15.5 8 15.5C7.44772 15.5 7 15.0523 7 14.5C7 13.9477 7.44772 13.5 8 13.5C8.55228 13.5 9 13.9477 9 14.5Z" fill="#A1A1A2"/>
</svg>
