<svg width="40" height="40" viewBox="0 0 40 40" fill="none" xmlns="http://www.w3.org/2000/svg">
<path d="M7.75 4C7.75 2.20508 9.20508 0.75 11 0.75H27C27.1212 0.75 27.2375 0.798159 27.3232 0.883885L38.1161 11.6768C38.2018 11.7625 38.25 11.8788 38.25 12V36C38.25 37.7949 36.7949 39.25 35 39.25H11C9.20507 39.25 7.75 37.7949 7.75 36V4Z" fill="white" stroke="#D0D5DD" stroke-width="1.5"/>
<path d="M27 0.5V8C27 10.2091 28.7909 12 31 12H38.5" stroke="#D0D5DD" stroke-width="1.5"/>
<rect y="16.5" width="28" height="19" rx="2" fill="#D92D20"/>
<path d="M7.14664 27.45H5.72664V29.5H3.98664V22.2H7.15664C7.45664 22.2 7.73331 22.22 7.98664 22.26C8.23997 22.3 8.46997 22.36 8.67664 22.44C8.88997 22.52 9.07997 22.6167 9.24664 22.73C9.41331 22.8433 9.55997 22.9733 9.68664 23.12C9.81331 23.2667 9.91664 23.4267 9.99664 23.6C10.0833 23.7733 10.1466 23.96 10.1866 24.16C10.2266 24.3533 10.2466 24.56 10.2466 24.78C10.2466 24.9733 10.23 25.16 10.1966 25.34C10.1633 25.52 10.1133 25.69 10.0466 25.85C9.97997 26.01 9.89664 26.1633 9.79664 26.31C9.69664 26.45 9.57997 26.58 9.44664 26.7C9.31331 26.8133 9.16664 26.9167 9.00664 27.01C8.84664 27.1033 8.66997 27.1833 8.47664 27.25C8.28331 27.3167 8.07664 27.3667 7.85664 27.4C7.63664 27.4333 7.39997 27.45 7.14664 27.45ZM7.01664 23.71H5.72664V26.22H6.99664C7.48331 26.22 7.85664 26.1133 8.11664 25.9C8.37664 25.6867 8.50664 25.3733 8.50664 24.96C8.50664 24.5267 8.37664 24.21 8.11664 24.01C7.86331 23.81 7.49664 23.71 7.01664 23.71ZM11.2523 22.2H13.9723C15.2189 22.2 16.1723 22.5067 16.8323 23.12C17.4989 23.7333 17.8323 24.62 17.8323 25.78C17.8323 26.02 17.8156 26.2533 17.7823 26.48C17.7489 26.7 17.6989 26.9133 17.6323 27.12C17.5723 27.3267 17.4923 27.5233 17.3923 27.71C17.2989 27.89 17.1889 28.06 17.0623 28.22C16.9356 28.38 16.7923 28.5267 16.6323 28.66C16.4789 28.7933 16.3056 28.9133 16.1123 29.02C15.9256 29.12 15.7223 29.2067 15.5023 29.28C15.2889 29.3533 15.0556 29.41 14.8023 29.45C14.5556 29.4833 14.2956 29.5 14.0223 29.5H11.2523V22.2ZM13.8723 23.68H12.9923V28.04H13.9423C14.6556 28.04 15.1823 27.84 15.5223 27.44C15.8623 27.0333 16.0323 26.4833 16.0323 25.79C16.0323 25.0633 15.8556 24.53 15.5023 24.19C15.1556 23.85 14.6123 23.68 13.8723 23.68ZM18.928 29.5V22.2H24.318V23.72H20.668V25.56H23.688V26.82H20.668V29.5H18.928Z" fill="white"/>
</svg>
