<svg width="24" height="25" viewBox="0 0 24 25" fill="none" xmlns="http://www.w3.org/2000/svg">
<path d="M18.0001 7.66C17.9401 7.65 17.8701 7.65 17.8101 7.66C16.4301 7.61 15.3301 6.48 15.3301 5.08C15.3301 3.65 16.4801 2.5 17.9101 2.5C19.3401 2.5 20.4901 3.66 20.4901 5.08C20.4801 6.48 19.3801 7.61 18.0001 7.66Z" stroke="#A1A1A2" stroke-width="2" stroke-linecap="round" stroke-linejoin="round"/>
<path d="M16.9702 14.9402C18.3402 15.1702 19.8502 14.9302 20.9102 14.2202C22.3202 13.2802 22.3202 11.7402 20.9102 10.8002C19.8402 10.0902 18.3102 9.85016 16.9402 10.0902" stroke="#A1A1A2" stroke-width="2" stroke-linecap="round" stroke-linejoin="round"/>
<path d="M5.96998 7.66C6.02998 7.65 6.09998 7.65 6.15998 7.66C7.53998 7.61 8.63998 6.48 8.63998 5.08C8.63998 3.65 7.48998 2.5 6.05998 2.5C4.62998 2.5 3.47998 3.66 3.47998 5.08C3.48998 6.48 4.58998 7.61 5.96998 7.66Z" stroke="#A1A1A2" stroke-width="2" stroke-linecap="round" stroke-linejoin="round"/>
<path d="M6.99994 14.9402C5.62994 15.1702 4.11994 14.9302 3.05994 14.2202C1.64994 13.2802 1.64994 11.7402 3.05994 10.8002C4.12994 10.0902 5.65994 9.85016 7.02994 10.0902" stroke="#A1A1A2" stroke-width="2" stroke-linecap="round" stroke-linejoin="round"/>
<path d="M12.0001 15.1302C11.9401 15.1202 11.8701 15.1202 11.8101 15.1302C10.4301 15.0802 9.33008 13.9502 9.33008 12.5502C9.33008 11.1202 10.4801 9.97021 11.9101 9.97021C13.3401 9.97021 14.4901 11.1302 14.4901 12.5502C14.4801 13.9502 13.3801 15.0902 12.0001 15.1302Z" stroke="#A1A1A2" stroke-width="2" stroke-linecap="round" stroke-linejoin="round"/>
<path d="M9.08997 18.2804C7.67997 19.2204 7.67997 20.7603 9.08997 21.7003C10.69 22.7703 13.31 22.7703 14.91 21.7003C16.32 20.7603 16.32 19.2204 14.91 18.2804C13.32 17.2204 10.69 17.2204 9.08997 18.2804Z" stroke="#A1A1A2" stroke-width="2" stroke-linecap="round" stroke-linejoin="round"/>
</svg>
