<svg width="24" height="25" viewBox="0 0 24 25" fill="none" xmlns="http://www.w3.org/2000/svg">
<path d="M3.47178 14.0544L4.43237 13.7765L3.47178 14.0544ZM3.47178 7.40653L2.51119 7.12856L2.51119 7.12856L3.47178 7.40653ZM20.5282 7.40654L21.4888 7.12856L21.4888 7.12856L20.5282 7.40654ZM20.5282 14.0544L19.5676 13.7765L19.5676 13.7765L20.5282 14.0544ZM16.8148 17.5075L16.628 16.5251L16.8148 17.5075ZM7.18522 17.5075L7.37201 16.5251L7.18522 17.5075ZM7.18522 3.95344L6.99843 2.97104L7.18522 3.95344ZM16.8148 3.95344L17.0016 2.97104L16.8148 3.95344ZM3.52005 14.2212L2.55946 14.4992L3.52005 14.2212ZM20.48 14.2212L21.4405 14.4992V14.4992L20.48 14.2212ZM20.48 7.23973L19.5194 7.51771L19.5194 7.51771L20.48 7.23973ZM3.52005 7.23973L4.48064 7.51771V7.51771L3.52005 7.23973ZM13 18.423C13 17.8707 12.5523 17.423 12 17.423C11.4477 17.423 11 17.8707 11 18.423H13ZM11 21.5C11 22.0523 11.4477 22.5 12 22.5C12.5523 22.5 13 22.0523 13 21.5H11ZM9.36386 20.5C8.81157 20.5 8.36386 20.9477 8.36386 21.5C8.36386 22.0523 8.81157 22.5 9.36386 22.5V20.5ZM14.6361 22.5C15.1884 22.5 15.6361 22.0523 15.6361 21.5C15.6361 20.9477 15.1884 20.5 14.6361 20.5V22.5ZM19.5194 7.51771L19.5676 7.68452L21.4888 7.12856L21.4405 6.96176L19.5194 7.51771ZM19.5676 13.7765L19.5194 13.9433L21.4405 14.4992L21.4888 14.3324L19.5676 13.7765ZM4.48064 13.9433L4.43237 13.7765L2.51119 14.3324L2.55946 14.4992L4.48064 13.9433ZM4.43237 7.68451L4.48064 7.51771L2.55946 6.96176L2.51119 7.12856L4.43237 7.68451ZM4.43237 13.7765C3.85588 11.7843 3.85588 9.67665 4.43237 7.68451L2.51119 7.12856C1.8296 9.48388 1.8296 11.9771 2.51119 14.3324L4.43237 13.7765ZM19.5676 7.68452C20.1441 9.67665 20.1441 11.7843 19.5676 13.7765L21.4888 14.3324C22.1704 11.9771 22.1704 9.48389 21.4888 7.12856L19.5676 7.68452ZM16.628 16.5251C13.5716 17.1063 10.4284 17.1063 7.37201 16.5251L6.99843 18.4899C10.3016 19.118 13.6984 19.118 17.0016 18.4899L16.628 16.5251ZM7.37201 4.93584C10.4284 4.35472 13.5716 4.35472 16.628 4.93584L17.0016 2.97104C13.6984 2.34299 10.3016 2.34299 6.99843 2.97104L7.37201 4.93584ZM7.37201 16.5251C5.96895 16.2584 4.85896 15.2506 4.48064 13.9433L2.55946 14.4992C3.15371 16.5527 4.87872 18.0869 6.99843 18.4899L7.37201 16.5251ZM17.0016 18.4899C19.1213 18.0869 20.8463 16.5527 21.4405 14.4992L19.5194 13.9433C19.141 15.2506 18.0311 16.2584 16.628 16.5251L17.0016 18.4899ZM16.628 4.93584C18.0311 5.20261 19.141 6.21036 19.5194 7.51771L21.4405 6.96176C20.8463 4.90827 19.1213 3.37408 17.0016 2.97104L16.628 4.93584ZM6.99843 2.97104C4.87872 3.37408 3.15371 4.90826 2.55946 6.96176L4.48064 7.51771C4.85896 6.21036 5.96895 5.20261 7.37201 4.93584L6.99843 2.97104ZM11 18.423V21.5H13V18.423H11ZM9.36386 22.5H14.6361V20.5H9.36386V22.5Z" fill="#A1A1A2"/>
<path d="M8 11.75L10.0588 10.1287C10.4346 9.83272 10.6225 9.68475 10.8303 9.71113C11.0381 9.73752 11.1831 9.92777 11.473 10.3083L12.527 11.6917C12.8169 12.0722 12.9619 12.2625 13.1697 12.2889C13.3775 12.3153 13.5654 12.1673 13.9412 11.8713L16 10.25" stroke="#A1A1A2" stroke-width="2" stroke-linecap="round"/>
</svg>
