<svg width="24" height="25" viewBox="0 0 24 25" fill="none" xmlns="http://www.w3.org/2000/svg">
<path d="M12.12 13.2805C12.05 13.2705 11.96 13.2705 11.88 13.2805C10.12 13.2205 8.71997 11.7805 8.71997 10.0105C8.71997 8.20047 10.18 6.73047 12 6.73047C13.81 6.73047 15.28 8.20047 15.28 10.0105C15.27 11.7805 13.88 13.2205 12.12 13.2805Z" stroke="#A1A1A2" stroke-width="2" stroke-linecap="round" stroke-linejoin="round"/>
<path d="M18.74 19.8796C16.96 21.5096 14.6 22.4996 12 22.4996C9.40001 22.4996 7.04001 21.5096 5.26001 19.8796C5.36001 18.9396 5.96001 18.0196 7.03001 17.2996C9.77001 15.4796 14.25 15.4796 16.97 17.2996C18.04 18.0196 18.64 18.9396 18.74 19.8796Z" stroke="#A1A1A2" stroke-width="2" stroke-linecap="round" stroke-linejoin="round"/>
<path d="M12 22.5C17.5228 22.5 22 18.0228 22 12.5C22 6.97715 17.5228 2.5 12 2.5C6.47715 2.5 2 6.97715 2 12.5C2 18.0228 6.47715 22.5 12 22.5Z" stroke="#A1A1A2" stroke-width="2" stroke-linecap="round" stroke-linejoin="round"/>
</svg>
