<svg width="24" height="24" viewBox="0 0 24 24" fill="none" xmlns="http://www.w3.org/2000/svg">
<path fill-rule="evenodd" clip-rule="evenodd" d="M5.11628 11.6279C5.11628 15.2242 8.03163 18.1395 11.6279 18.1395C15.2242 18.1395 18.1395 15.2242 18.1395 11.6279C18.1395 8.03163 15.2242 5.11628 11.6279 5.11628C8.03163 5.11628 5.11628 8.03163 5.11628 11.6279ZM11.6279 19.2558C7.41513 19.2558 4 15.8407 4 11.6279C4 7.41513 7.41513 4 11.6279 4C15.8407 4 19.2558 7.41513 19.2558 11.6279C19.2558 13.5334 18.5571 15.2757 17.4019 16.6126L19.8365 19.0472C20.0545 19.2652 20.0545 19.6186 19.8365 19.8365C19.6186 20.0545 19.2652 20.0545 19.0472 19.8365L16.6126 17.4019C15.2757 18.5571 13.5334 19.2558 11.6279 19.2558Z" fill="#5C6972"/>
</svg>
