<svg width="34" height="34" viewBox="0 0 34 34" fill="none" xmlns="http://www.w3.org/2000/svg">
<rect width="34" height="34" rx="17" fill="#FCDF46"/>
<path d="M20.4501 9.46621L12.9251 11.9662C7.86676 13.6579 7.86676 16.4162 12.9251 18.0995L15.1584 18.8412L15.9001 21.0745C17.5834 26.1329 20.3501 26.1329 22.0334 21.0745L24.5418 13.5579C25.6584 10.1829 23.8251 8.34121 20.4501 9.46621ZM20.7168 13.9495L17.5501 17.1329C17.4251 17.2579 17.2668 17.3162 17.1084 17.3162C16.9501 17.3162 16.7918 17.2579 16.6668 17.1329C16.4251 16.8912 16.4251 16.4912 16.6668 16.2495L19.8334 13.0662C20.0751 12.8245 20.4751 12.8245 20.7168 13.0662C20.9584 13.3079 20.9584 13.7079 20.7168 13.9495Z" fill="white"/>
</svg>
