<svg width="50" height="50" viewBox="0 0 50 50" fill="none" xmlns="http://www.w3.org/2000/svg">
<g clip-path="url(#clip0_69_637)">
<path d="M41.6667 0H8.33333C3.7375 0 0 3.7375 0 8.33333V33.3333C0 37.9292 3.7375 41.6667 8.33333 41.6667H14.4229L22.2312 48.2417C23.0271 48.95 24.0271 49.3021 25.0187 49.3021C25.9917 49.3021 26.9583 48.9625 27.7104 48.2917L35.725 41.6667H41.6667C46.2625 41.6667 50 37.9292 50 33.3333V8.33333C50 3.7375 46.2625 0 41.6667 0ZM16.3437 23.8854C16.0146 25.7375 14.2458 27.0833 12.1417 27.0833C10.4396 27.0833 8.83958 26.3979 7.75417 25.2L7.75 25.1958C7.275 24.6729 7.3125 23.8625 7.8375 23.3875L7.84792 23.3771C8.37083 22.9021 9.18125 22.9417 9.65625 23.4646L9.66042 23.4688C10.25 24.1187 11.1771 24.5062 12.1417 24.5062C13.0646 24.5062 13.7146 23.9604 13.8104 23.4312C13.9375 22.7208 12.8812 22.2729 12.5521 22.1521C11.0021 21.5812 9.60625 20.9562 9.60625 20.9562C8.37083 20.1687 7.825 18.9604 8.00417 17.7021C8.19792 16.3646 9.175 15.275 10.5583 14.8583C13.2729 14.0396 15.5187 15.8854 15.6104 15.9646L15.6167 15.9687C16.1583 16.425 16.2271 17.2312 15.7729 17.7729L15.7625 17.7833C15.3083 18.325 14.5 18.3937 13.9583 17.9396C13.9062 17.8979 12.6542 16.9187 11.3 17.3229C10.6958 17.5042 10.5771 17.9042 10.5542 18.0667C10.5375 18.1875 10.5271 18.4896 10.8208 18.6896C10.8542 18.6896 12.0854 19.2312 13.4417 19.7333C15.9604 20.6625 16.5917 22.4854 16.3437 23.8813V23.8854ZM31.0167 25.725C31.0167 26.4354 30.4396 27.0125 29.7292 27.0125H29.7229C29.0125 27.0125 28.4354 26.4354 28.4354 25.725V18.9937L25.7833 21.8667C25.2729 22.4187 24.4 22.4187 23.8896 21.8667L21.2354 18.9917L21.2312 25.7271C21.2312 26.4375 20.6542 27.0146 19.9437 27.0146C19.2333 27.0146 18.6562 26.4375 18.6562 25.7271V16.4292C18.6562 15.4479 19.4521 14.6542 20.4312 14.6542C20.9438 14.6542 21.4312 14.875 21.7687 15.2625L24.8375 18.775L27.9062 15.2625C28.2437 14.8771 28.7312 14.6542 29.2437 14.6542C30.225 14.6542 31.0187 15.45 31.0187 16.4292V25.7271L31.0167 25.725ZM42.5333 23.8167C42.2042 25.6687 40.4354 27.0146 38.3312 27.0146C36.6292 27.0146 35.0292 26.3292 33.9437 25.1312L33.9396 25.1271C33.4646 24.6042 33.5021 23.7937 34.0271 23.3187L34.0375 23.3083C34.5604 22.8333 35.3708 22.8729 35.8458 23.3958L35.85 23.4C36.4396 24.05 37.3667 24.4375 38.3312 24.4375C39.2542 24.4375 39.9042 23.8917 40 23.3625C40.1271 22.6521 39.0708 22.2042 38.7417 22.0833C37.1917 21.5125 35.7958 20.8875 35.7958 20.8875C34.5604 20.1 34.0146 18.8917 34.1937 17.6333C34.3875 16.2958 35.3646 15.2062 36.7479 14.7896C39.4625 13.9708 41.7083 15.8167 41.8 15.8958L41.8062 15.9C42.3479 16.3562 42.4167 17.1625 41.9625 17.7042L41.9521 17.7146C41.4979 18.2563 40.6896 18.325 40.1479 17.8708C40.0958 17.8292 38.8438 16.85 37.4896 17.2542C36.8854 17.4354 36.7667 17.8354 36.7437 17.9979C36.7271 18.1187 36.7167 18.4208 37.0104 18.6208C37.0417 18.6208 38.275 19.1625 39.6312 19.6646C42.15 20.5938 42.7812 22.4167 42.5333 23.8125V23.8167Z" fill="black"/>
</g>
<defs>
<clipPath id="clip0_69_637">
<rect width="50" height="50" fill="white"/>
</clipPath>
</defs>
</svg>
