<svg width="24" height="25" viewBox="0 0 24 25" fill="none" xmlns="http://www.w3.org/2000/svg">
<path fill-rule="evenodd" clip-rule="evenodd" d="M6.5 11.75C6.5 12.4404 7.05964 13 7.75 13C8.44036 13 9 12.4404 9 11.75C9 11.0596 8.44036 10.5 7.75 10.5C7.05964 10.5 6.5 11.0596 6.5 11.75ZM12.75 13C12.0596 13 11.5 12.4404 11.5 11.75C11.5 11.0596 12.0596 10.5 12.75 10.5C13.4404 10.5 14 11.0596 14 11.75C14 12.4404 13.4404 13 12.75 13ZM17.75 13C17.0596 13 16.5 12.4404 16.5 11.75C16.5 11.0596 17.0596 10.5 17.75 10.5C18.4404 10.5 19 11.0596 19 11.75C19 12.4404 18.4404 13 17.75 13Z" fill="#28303F"/>
</svg>
