<svg width="80" height="80" viewBox="0 0 80 80" fill="none" xmlns="http://www.w3.org/2000/svg">
<path d="M70.1197 21.5709C72.3289 20.2192 73.0446 17.3116 71.4437 15.2756C68.3734 11.371 64.5939 8.06122 60.2896 5.52782C55.9854 2.99442 51.257 1.29661 46.3529 0.507709C43.7959 0.0963627 41.6011 2.13341 41.4917 4.72104L41.381 7.33966C41.2716 9.9273 43.2967 12.0744 45.8298 12.6136C48.7679 13.2391 51.5964 14.3354 54.2027 15.8695C56.8091 17.4035 59.1406 19.3442 61.1136 21.6093C62.8147 23.5623 65.6748 24.2906 67.8841 22.9388L70.1197 21.5709Z" fill="#89FFBA"/>
<path d="M40 4.68952C40 2.09957 37.8932 -0.0283972 35.321 0.274545C28.1424 1.12002 21.2952 3.89978 15.5311 8.35713C9.76687 12.8145 5.35386 18.7421 2.72952 25.4771C1.78919 27.8903 3.31867 30.4647 5.82531 31.1163L8.36196 31.7757C10.8686 32.4273 13.3938 30.8994 14.4542 28.5365C16.3291 24.3582 19.2112 20.6806 22.8717 17.85C26.5323 15.0194 30.8167 13.1552 35.3323 12.3918C37.886 11.96 40 9.90043 40 7.31048V4.68952Z" fill="#072032"/>
<path d="M70.5892 22.3612C72.8329 21.0674 75.7287 21.8294 76.7511 24.209C78.7891 28.9522 79.8957 34.0593 79.993 39.2503C80.0903 44.4414 79.1759 49.5863 77.3171 54.4025C76.3846 56.8188 73.5194 57.6888 71.2288 56.48L68.9108 55.2568C66.6202 54.048 65.7854 51.2171 66.5954 48.7571C67.5774 45.7745 68.0544 42.6371 67.9951 39.4752C67.9358 36.3134 67.3417 33.196 66.2485 30.2523C65.3469 27.8244 66.0751 24.9642 68.3187 23.6704L70.5892 22.3612Z" fill="#5DD89D"/>
<path d="M70.5984 57.623C72.8427 58.9156 73.6352 61.8033 72.089 63.881C67.3536 70.2441 60.8083 75.0863 53.2586 77.7387C44.2269 80.9118 34.3568 80.7406 25.4406 77.2562C16.5244 73.7718 9.15353 67.2054 4.66642 58.7494C0.91555 51.6808 -0.612272 43.6836 0.221461 35.7959C0.493702 33.2203 3.0342 31.6351 5.56028 32.2067L8.11661 32.7852C10.6427 33.3568 12.1848 35.8733 12.0424 38.4593C11.7635 43.5208 12.863 48.595 15.2665 53.1245C18.4075 59.0438 23.5671 63.6403 29.8084 66.0793C36.0498 68.5184 42.9588 68.6382 49.281 66.4171C54.1188 64.7174 58.3675 61.7333 61.5943 57.8238C63.243 55.8264 66.0828 55.0223 68.3272 56.3149L70.5984 57.623Z" fill="#FFF59F"/>
</svg>
