<svg width="28" height="28" viewBox="0 0 28 28" fill="none" xmlns="http://www.w3.org/2000/svg">
<path d="M24.5 6.97664C20.615 6.59164 16.7067 6.39331 12.81 6.39331C10.5 6.39331 8.19 6.50998 5.88 6.74331L3.5 6.97664" stroke="#D92D20" stroke-width="1.75" stroke-linecap="round" stroke-linejoin="round"/>
<path d="M9.91675 5.79825L10.1734 4.26992C10.3601 3.16159 10.5001 2.33325 12.4717 2.33325H15.5284C17.5001 2.33325 17.6517 3.20825 17.8267 4.28159L18.0834 5.79825" stroke="#D92D20" stroke-width="1.75" stroke-linecap="round" stroke-linejoin="round"/>
<path d="M21.9916 10.6633L21.2333 22.4117C21.105 24.2433 21 25.6667 17.745 25.6667H10.255C6.99997 25.6667 6.89497 24.2433 6.76663 22.4117L6.0083 10.6633" stroke="#D92D20" stroke-width="1.75" stroke-linecap="round" stroke-linejoin="round"/>
<path d="M12.0518 19.25H15.9368" stroke="#D92D20" stroke-width="1.75" stroke-linecap="round" stroke-linejoin="round"/>
<path d="M11.0833 14.5833H16.9166" stroke="#D92D20" stroke-width="1.75" stroke-linecap="round" stroke-linejoin="round"/>
</svg>
