<svg width="80" height="80" viewBox="0 0 80 80" fill="none" xmlns="http://www.w3.org/2000/svg">
<circle cx="40" cy="40" r="40" fill="#072032"/>
<path d="M25.7863 42.5907L26.987 42.2433L25.7863 42.5907ZM25.7863 31.5109L24.5856 31.1634L24.5856 31.1634L25.7863 31.5109ZM54.2137 31.5109L55.4144 31.1634V31.1634L54.2137 31.5109ZM54.2137 42.5907L53.013 42.2433L53.013 42.2433L54.2137 42.5907ZM48.0246 48.3459L47.7911 47.1179L48.0246 48.3459ZM31.9754 48.3459L32.2089 47.1179L31.9754 48.3459ZM31.9754 25.7557L31.7419 24.5277L31.9754 25.7557ZM48.0246 25.7557L48.2581 24.5277L48.0246 25.7557ZM25.8668 42.8687L24.666 43.2162H24.666L25.8668 42.8687ZM54.1333 42.8687L55.334 43.2162L55.334 43.2162L54.1333 42.8687ZM54.1333 31.2329L52.9325 31.5804V31.5804L54.1333 31.2329ZM25.8668 31.2329L27.0675 31.5804L25.8668 31.2329ZM41.25 49.8717C41.25 49.1813 40.6904 48.6217 40 48.6217C39.3096 48.6217 38.75 49.1813 38.75 49.8717H41.25ZM38.75 55C38.75 55.6904 39.3096 56.25 40 56.25C40.6904 56.25 41.25 55.6904 41.25 55H38.75ZM35.6064 53.75C34.9161 53.75 34.3564 54.3096 34.3564 55C34.3564 55.6904 34.9161 56.25 35.6064 56.25V53.75ZM44.3936 56.25C45.0839 56.25 45.6436 55.6904 45.6436 55C45.6436 54.3096 45.0839 53.75 44.3936 53.75V56.25ZM52.9325 31.5804L53.013 31.8584L55.4144 31.1634L55.334 30.8854L52.9325 31.5804ZM53.013 42.2433L52.9325 42.5213L55.334 43.2162L55.4144 42.9382L53.013 42.2433ZM27.0675 42.5213L26.987 42.2433L24.5856 42.9382L24.666 43.2162L27.0675 42.5213ZM26.987 31.8584L27.0675 31.5804L24.666 30.8854L24.5856 31.1634L26.987 31.8584ZM26.987 42.2433C26.0043 38.8474 26.0043 35.2543 26.987 31.8584L24.5856 31.1634C23.4715 35.0133 23.4715 39.0883 24.5856 42.9382L26.987 42.2433ZM53.013 31.8584C53.9957 35.2543 53.9957 38.8474 53.013 42.2433L55.4144 42.9382C56.5285 39.0883 56.5285 35.0133 55.4144 31.1634L53.013 31.8584ZM47.7911 47.1179C42.6458 48.0962 37.3542 48.0962 32.2089 47.1179L31.7419 49.5739C37.1958 50.6109 42.8042 50.6109 48.2581 49.5739L47.7911 47.1179ZM32.2089 26.9837C37.3542 26.0054 42.6458 26.0054 47.7911 26.9837L48.2581 24.5277C42.8042 23.4908 37.1958 23.4908 31.7419 24.5277L32.2089 26.9837ZM32.2089 47.1179C29.7211 46.6449 27.743 44.8556 27.0675 42.5213L24.666 43.2162C25.6114 46.4832 28.3583 48.9306 31.7419 49.5739L32.2089 47.1179ZM48.2581 49.5739C51.6417 48.9306 54.3886 46.4832 55.334 43.2162L52.9325 42.5213C52.257 44.8556 50.2789 46.6449 47.7911 47.1179L48.2581 49.5739ZM47.7911 26.9837C50.2789 27.4567 52.257 29.246 52.9325 31.5804L55.334 30.8854C54.3886 27.6184 51.6417 25.1711 48.2581 24.5277L47.7911 26.9837ZM31.7419 24.5277C28.3583 25.1711 25.6114 27.6184 24.666 30.8854L27.0675 31.5804C27.743 29.246 29.7211 27.4567 32.2089 26.9837L31.7419 24.5277ZM38.75 49.8717V55H41.25V49.8717H38.75ZM35.6064 56.25H44.3936V53.75H35.6064V56.25Z" fill="white"/>
<path d="M33.3335 38.75L37.6962 35.3143C37.8842 35.1664 37.9781 35.0924 38.082 35.1056C38.1859 35.1188 38.2584 35.2139 38.4033 35.4041L41.597 39.5959C41.742 39.7861 41.8144 39.8812 41.9183 39.8944C42.0222 39.9076 42.1162 39.8336 42.3041 39.6857L46.6668 36.25" stroke="white" stroke-width="2.5" stroke-linecap="round"/>
</svg>
