<svg width="52" height="27" viewBox="0 0 52 27" fill="none" xmlns="http://www.w3.org/2000/svg">
<path d="M13.1352 0.859741L0.804196 11.3271C0.375292 11.6912 0.0893551 13.2234 0 13.944V24.673C0.857809 26.9758 3.21679 26.3304 4.28905 25.7198C7.50583 23.1029 14.2611 17.5552 15.5478 16.2991C16.8345 15.043 17.1562 15.0779 17.1562 15.2524L17.4243 24.673C18.2821 28.0226 21.1772 26.2431 22.5175 24.9347C25.3769 22.6668 31.5245 17.7122 33.2401 16.0374C34.9557 14.3627 35.2059 15.6885 35.1166 16.5608V25.1964C36.1888 27.9179 38.6014 26.6793 39.6737 25.7198L48.5198 18.1309C51.3077 15.6187 52.0047 13.5951 52.0047 12.8972V2.16817C50.9324 -0.344003 48.6986 0.772517 47.7157 1.6448C45.035 3.8255 39.1376 8.71028 36.993 10.8038C34.8485 12.8972 34.6698 11.5016 34.8485 10.5421C34.9379 9.23365 35.063 5.83175 34.8485 2.69153C34.6341 -0.448684 31.5424 0.685286 30.0233 1.6448L17.1562 11.8505C17.2455 10.1059 17.3706 5.83174 17.1562 2.69153C16.9417 -0.448681 14.3862 0.161916 13.1352 0.859741Z" fill="#5DD89D"/>
</svg>
