<svg width="34" height="34" viewBox="0 0 34 34" fill="none" xmlns="http://www.w3.org/2000/svg">
<g clip-path="url(#clip0_1179_2935)">
<path d="M17 25.4963C21.6944 25.4963 25.5 21.6908 25.5 16.9963C25.5 12.3019 21.6944 8.49635 17 8.49635C12.3056 8.49635 8.5 12.3019 8.5 16.9963C8.5 21.6908 12.3056 25.4963 17 25.4963Z" fill="white"/>
<path d="M16.9984 8.50003H31.7184C30.2268 5.91559 28.0811 3.76943 25.4969 2.27733C22.9128 0.785226 19.9813 -0.000208158 16.9973 4.13807e-08C14.0133 0.000208241 11.082 0.786051 8.49801 2.27851C5.91406 3.77097 3.7686 5.91744 2.27734 8.50209L9.63735 21.25L9.64394 21.2483C8.89523 19.9572 8.50012 18.4916 8.49845 16.9991C8.49677 15.5066 8.88858 14.0401 9.63438 12.7473C10.3802 11.4545 11.4536 10.3812 12.7465 9.63551C14.0393 8.88984 15.5059 8.49819 16.9984 8.50003Z" fill="url(#paint0_linear_1179_2935)"/>
<path d="M16.9987 23.7291C20.7151 23.7291 23.7279 20.7163 23.7279 16.9999C23.7279 13.2835 20.7151 10.2707 16.9987 10.2707C13.2823 10.2707 10.2695 13.2835 10.2695 16.9999C10.2695 20.7163 13.2823 23.7291 16.9987 23.7291Z" fill="#1A73E8"/>
<path d="M24.3591 21.2522L16.9991 34.0001C19.9831 34.0005 22.9146 33.2153 25.4989 31.7234C28.0831 30.2315 30.229 28.0855 31.7208 25.5012C33.2127 22.9169 33.9978 19.9853 33.9972 17.0013C33.9967 14.0174 33.2105 11.0861 31.7178 8.50232H16.9979L16.9961 8.50891C18.4886 8.50603 19.9554 8.89667 21.2488 9.64145C22.5422 10.3862 23.6164 11.4588 24.3631 12.7511C25.1097 14.0434 25.5025 15.5097 25.5018 17.0022C25.5012 18.4947 25.107 19.9606 24.3591 21.2522Z" fill="url(#paint1_linear_1179_2935)"/>
<path d="M9.63823 21.2523L2.27823 8.50432C0.785856 11.0883 0.000111216 14.0197 1.18055e-08 17.0037C-0.000111193 19.9877 0.785415 22.9191 2.27759 25.5032C3.76977 28.0873 5.916 30.233 8.50048 31.7246C11.085 33.2161 14.0166 34.0009 17.0006 34.0001L24.3606 21.2521L24.3558 21.2473C23.6121 22.5413 22.5403 23.6163 21.2486 24.364C19.9569 25.1117 18.491 25.5056 16.9985 25.5061C15.506 25.5066 14.0397 25.1136 12.7475 24.3668C11.4554 23.62 10.3829 22.5457 9.63823 21.2523Z" fill="url(#paint2_linear_1179_2935)"/>
</g>
<defs>
<linearGradient id="paint0_linear_1179_2935" x1="2.27734" y1="10.625" x2="31.7184" y2="10.625" gradientUnits="userSpaceOnUse">
<stop stop-color="#D93025"/>
<stop offset="1" stop-color="#EA4335"/>
</linearGradient>
<linearGradient id="paint1_linear_1179_2935" x1="14.6767" y1="33.7728" x2="29.3972" y2="8.27608" gradientUnits="userSpaceOnUse">
<stop stop-color="#FCC934"/>
<stop offset="1" stop-color="#FBBC04"/>
</linearGradient>
<linearGradient id="paint2_linear_1179_2935" x1="18.8391" y1="32.9386" x2="4.11855" y2="7.44182" gradientUnits="userSpaceOnUse">
<stop stop-color="#1E8E3E"/>
<stop offset="1" stop-color="#34A853"/>
</linearGradient>
<clipPath id="clip0_1179_2935">
<rect width="34" height="34" fill="white"/>
</clipPath>
</defs>
</svg>
