<svg width="34" height="34" viewBox="0 0 34 34" fill="none" xmlns="http://www.w3.org/2000/svg">
<path d="M28.8012 2.84749C26.6004 1.51725 24.2471 0.550485 21.7868 0C21.4846 0.705702 21.1316 1.65489 20.8882 2.40996C18.2729 1.90186 15.6816 1.90186 13.1143 2.40996C12.871 1.65489 12.51 0.705702 12.2051 0C9.74214 0.550485 7.38615 1.5208 5.18527 2.85454C0.746077 11.5204 -0.457316 19.971 0.144382 28.3016C3.08869 31.142 5.94208 32.8674 8.74731 33.9965C9.43994 32.7651 10.0577 31.456 10.5898 30.0764C9.57631 29.5789 8.60558 28.965 7.68835 28.2522C7.93169 28.0193 8.16971 27.7758 8.39967 27.5253C13.9941 30.9056 20.0726 30.9056 25.6002 27.5253C25.8329 27.7758 26.0708 28.0193 26.3115 28.2522C25.3916 28.9685 24.4182 29.5824 23.4047 30.08C23.9368 31.456 24.5519 32.7686 25.2472 34C28.0551 32.8709 30.9112 31.1455 33.8555 28.3016C34.5615 18.6443 32.6494 10.2713 28.8012 2.84749ZM11.352 23.1783C9.67261 23.1783 8.29537 21.153 8.29537 18.6866C8.29537 16.2202 9.6432 14.1914 11.352 14.1914C13.0608 14.1914 14.438 16.2167 14.4086 18.6866C14.4113 21.153 13.0608 23.1783 11.352 23.1783ZM22.6479 23.1783C20.9685 23.1783 19.5912 21.153 19.5912 18.6866C19.5912 16.2202 20.939 14.1914 22.6479 14.1914C24.3567 14.1914 25.7339 16.2167 25.7045 18.6866C25.7045 21.153 24.3567 23.1783 22.6479 23.1783Z" fill="#5865F2"/>
</svg>
