<?xml version="1.0" encoding="UTF-8"?>
<svg xmlns="http://www.w3.org/2000/svg" xmlns:xlink="http://www.w3.org/1999/xlink" width="34px" height="31px" viewBox="0 0 34 31" version="1.1">
<g id="surface1">
<path style=" stroke:none;fill-rule:nonzero;fill:rgb(11.764706%,53.333336%,89.803922%);fill-opacity:1;" d="M 29.398438 28.417969 C 28.945312 29.21875 29.144531 29.863281 28.382812 30.308594 C 27.621094 30.753906 26.742188 31 25.828125 31 L 8.164062 31 C 7.253906 31 6.375 30.753906 5.613281 30.308594 C 4.847656 29.863281 5.050781 29.21875 4.59375 28.417969 L 11.113281 20.667969 L 22.878906 20.667969 Z M 29.398438 28.417969 "/>
<path style=" stroke:none;fill-rule:nonzero;fill:rgb(98.431373%,75.294119%,17.647059%);fill-opacity:1;" d="M 19.941406 0.859375 C 20.855469 0.859375 21.730469 0.242188 22.492188 0.691406 C 23.253906 1.136719 23.902344 1.785156 24.359375 2.585938 L 33.191406 18.082031 C 33.648438 18.882812 33.878906 19.777344 33.878906 20.667969 C 33.878906 21.558594 32.800781 22.453125 32.34375 23.25 L 22.886719 20.664062 L 17 10.335938 Z M 19.941406 0.859375 "/>
<path style=" stroke:none;fill-rule:nonzero;fill:rgb(89.803922%,22.352941%,20.784314%);fill-opacity:1;" d="M 33.882812 20.667969 C 33.882812 21.5625 33.652344 22.449219 33.195312 23.25 L 30.074219 28.71875 C 29.625 29.390625 29.046875 29.921875 28.382812 30.3125 L 22.882812 20.667969 Z M 33.882812 20.667969 "/>
<path style=" stroke:none;fill-rule:nonzero;fill:rgb(29.803923%,68.627453%,31.37255%);fill-opacity:1;" d="M 1.65625 23.25 C 1.199219 22.453125 0.121094 21.558594 0.121094 20.667969 C 0.121094 19.777344 0.347656 18.882812 0.804688 18.082031 L 9.636719 2.585938 C 10.09375 1.785156 10.742188 1.136719 11.503906 0.691406 C 12.265625 0.242188 13.144531 0.859375 14.054688 0.859375 L 16.996094 10.339844 L 11.113281 20.664062 Z M 1.65625 23.25 "/>
<path style=" stroke:none;fill-rule:nonzero;fill:rgb(8.235294%,39.607844%,75.294119%);fill-opacity:1;" d="M 11.117188 20.667969 L 5.617188 30.3125 C 4.957031 29.921875 4.378906 29.390625 3.925781 28.71875 L 0.808594 23.25 C 0.347656 22.449219 0.121094 21.5625 0.121094 20.667969 Z M 11.117188 20.667969 "/>
<path style=" stroke:none;fill-rule:nonzero;fill:rgb(18.039216%,49.019608%,19.607843%);fill-opacity:1;" d="M 22.492188 0.6875 L 17 10.332031 L 11.5 0.6875 C 12.164062 0.300781 12.914062 0.0585938 13.710938 0.0078125 L 19.941406 0 C 20.859375 0 21.734375 0.242188 22.492188 0.6875 Z M 22.492188 0.6875 "/>
</g>
</svg>
