<svg width="34" height="34" viewBox="0 0 34 34" fill="none" xmlns="http://www.w3.org/2000/svg">
<g clip-path="url(#clip0_1179_3024)">
<circle cx="17" cy="17" r="17" fill="url(#paint0_linear_1179_3024)"/>
<path fill-rule="evenodd" clip-rule="evenodd" d="M21.5821 5.66678H12.4205C8.69713 5.66678 5.66797 8.69594 5.66797 12.4193V21.5809C5.66797 25.3043 8.69713 28.3334 12.4205 28.3334H21.5821C25.3055 28.3334 28.3346 25.3043 28.3346 21.5809V12.4193C28.3346 8.69594 25.3054 5.66678 21.5821 5.66678ZM26.0544 21.5809C26.0544 24.0509 24.052 26.0532 21.5821 26.0532H12.4205C9.95055 26.0532 7.94823 24.0509 7.94823 21.5809V12.4193C7.94823 9.94932 9.95055 7.94704 12.4205 7.94704H21.5821C24.052 7.94704 26.0544 9.94932 26.0544 12.4193V21.5809ZM17.003 11.1374C13.7705 11.1374 11.1406 13.7673 11.1406 16.9998C11.1406 20.2323 13.7705 22.8622 17.003 22.8622C20.2356 22.8622 22.8654 20.2323 22.8654 16.9998C22.8654 13.7673 20.2356 11.1374 17.003 11.1374ZM17.003 20.582C15.0247 20.582 13.4209 18.9782 13.4209 16.9998C13.4209 15.0215 15.0247 13.4177 17.003 13.4177C18.9814 13.4177 20.5852 15.0215 20.5852 16.9998C20.5852 18.9782 18.9814 20.582 17.003 20.582ZM24.2783 11.1815C24.2783 11.9574 23.6493 12.5863 22.8735 12.5863C22.0977 12.5863 21.4688 11.9574 21.4688 11.1815C21.4688 10.4057 22.0977 9.77678 22.8735 9.77678C23.6493 9.77678 24.2783 10.4057 24.2783 11.1815Z" fill="white"/>
</g>
<defs>
<linearGradient id="paint0_linear_1179_3024" x1="6.90625" y1="34" x2="22.3125" y2="4.40837e-07" gradientUnits="userSpaceOnUse">
<stop stop-color="#FBD06F"/>
<stop offset="0.3" stop-color="#F16C2E"/>
<stop offset="0.6" stop-color="#C82E96"/>
<stop offset="1" stop-color="#4E6AD6"/>
</linearGradient>
<clipPath id="clip0_1179_3024">
<rect width="34" height="34" fill="white"/>
</clipPath>
</defs>
</svg>
