<svg width="35" height="34" viewBox="0 0 35 34" fill="none" xmlns="http://www.w3.org/2000/svg">
<g clip-path="url(#clip0_1044_5639)">
<path d="M30.8633 0.796754H3.23828C2.61149 0.790375 2.00777 1.03291 1.55958 1.47113C1.1114 1.90935 0.855362 2.50748 0.847656 3.13425V30.8708C0.856756 31.4967 1.1134 32.0934 1.56144 32.5305C2.00947 32.9676 2.6124 33.2094 3.23828 33.203H30.8633C31.4901 33.208 32.0934 32.9646 32.5414 32.5261C32.9893 32.0876 33.2455 31.4896 33.2539 30.8628V3.12628C33.2427 2.50135 32.9853 1.90608 32.5377 1.46986C32.09 1.03365 31.4883 0.791754 30.8633 0.796754Z" fill="#0076B2"/>
<path d="M5.64422 12.9438H10.4547V28.4218H5.64422V12.9438ZM8.05078 5.24072C8.60252 5.24072 9.14186 5.40437 9.60058 5.71095C10.0593 6.01753 10.4168 6.45328 10.6278 6.96307C10.8388 7.47286 10.8939 8.03378 10.7861 8.57488C10.6782 9.11598 10.4123 9.61294 10.022 10.0029C9.63168 10.3928 9.13447 10.6583 8.59327 10.7656C8.05207 10.8729 7.4912 10.8173 6.98161 10.6058C6.47202 10.3943 6.03662 10.0364 5.73047 9.57737C5.42432 9.11836 5.26119 8.57887 5.26172 8.02713C5.26242 7.28788 5.55658 6.57916 6.07956 6.05668C6.60253 5.5342 7.31154 5.24072 8.05078 5.24072ZM13.4722 12.9438H18.0834V15.0688H18.1472C18.79 13.8523 20.3572 12.5693 22.6973 12.5693C27.5689 12.5587 28.472 15.7648 28.472 19.9218V28.4218H23.6616V20.8913C23.6616 19.0984 23.6297 16.7901 21.162 16.7901C18.6944 16.7901 18.2747 18.7451 18.2747 20.7745V28.4218H13.4722V12.9438Z" fill="white"/>
</g>
<defs>
<clipPath id="clip0_1044_5639">
<rect width="34" height="34" fill="white" transform="translate(0.0507812)"/>
</clipPath>
</defs>
</svg>
