<?xml version="1.0" encoding="UTF-8"?>
<svg xmlns="http://www.w3.org/2000/svg" xmlns:xlink="http://www.w3.org/1999/xlink" width="34px" height="40px" viewBox="0 0 34 38" version="1.1">
<g id="surface1">
<path style=" stroke:none;fill-rule:nonzero;fill:rgb(0%,0%,0%);fill-opacity:1;" d="M 33.476562 28.089844 C 32.574219 30.027344 32.144531 30.894531 30.988281 32.601562 C 29.371094 34.992188 27.085938 37.976562 24.265625 37.996094 C 21.757812 38.015625 21.109375 36.40625 17.703125 36.429688 C 14.300781 36.449219 13.589844 38.023438 11.078125 37.996094 C 8.257812 37.976562 6.09375 35.289062 4.476562 32.902344 C -0.046875 26.210938 -0.523438 18.371094 2.273438 14.199219 C 4.25 11.238281 7.378906 9.503906 10.316406 9.503906 C 13.3125 9.503906 15.191406 11.101562 17.667969 11.101562 C 20.070312 11.101562 21.53125 9.5 24.992188 9.5 C 27.609375 9.5 30.378906 10.886719 32.355469 13.273438 C 25.886719 16.714844 26.9375 25.6875 33.476562 28.089844 Z M 33.476562 28.089844 "/>
<path style=" stroke:none;fill-rule:nonzero;fill:rgb(0%,0%,0%);fill-opacity:1;" d="M 22.804688 6.410156 C 24.15625 4.746094 25.179688 2.394531 24.804688 0 C 22.609375 0.144531 20.035156 1.496094 18.53125 3.246094 C 17.167969 4.839844 16.039062 7.207031 16.480469 9.496094 C 18.878906 9.570312 21.363281 8.195312 22.804688 6.410156 Z M 22.804688 6.410156 "/>
<path style=" stroke:none;fill-rule:nonzero;fill:rgb(0%,0%,0%);fill-opacity:1;" d="M 29.914062 15.222656 C 20.632812 25.335938 12.132812 15.835938 0.6875 23.054688 C 1.085938 26.25 2.3125 29.707031 4.476562 32.90625 C 6.089844 35.289062 8.253906 37.976562 11.074219 38 C 13.585938 38.023438 14.296875 36.449219 17.699219 36.433594 C 21.105469 36.40625 21.753906 38.015625 24.261719 37.996094 C 27.082031 37.976562 29.367188 34.992188 30.984375 32.605469 C 32.140625 30.894531 32.570312 30.03125 33.472656 28.09375 C 27.941406 26.058594 26.359375 19.332031 29.914062 15.222656 Z M 29.914062 15.222656 "/>
</g>
</svg>
