<?xml version="1.0" encoding="UTF-8"?>
<svg xmlns="http://www.w3.org/2000/svg" xmlns:xlink="http://www.w3.org/1999/xlink" width="34px" height="34px" viewBox="0 0 34 32" version="1.1">
<g id="surface1">
<path style=" stroke:none;fill-rule:nonzero;fill:rgb(34.901962%,58.823532%,21.176471%);fill-opacity:1;" d="M 16.898438 0.0859375 L 17.769531 1.691406 C 17.964844 1.988281 18.175781 2.25 18.425781 2.492188 C 19.15625 3.207031 19.847656 3.957031 20.46875 4.757812 C 21.945312 6.660156 22.941406 8.769531 23.652344 11.050781 C 24.078125 12.445312 24.3125 13.875 24.328125 15.320312 C 24.398438 19.644531 22.886719 23.355469 19.839844 26.441406 C 19.34375 26.929688 18.808594 27.382812 18.238281 27.78125 C 17.9375 27.78125 17.792969 27.554688 17.667969 27.347656 C 17.4375 26.964844 17.296875 26.527344 17.226562 26.09375 C 17.117188 25.570312 17.046875 25.046875 17.082031 24.507812 L 17.082031 24.261719 C 17.058594 24.210938 16.792969 0.210938 16.898438 0.0859375 Z M 16.898438 0.0859375 "/>
<path style=" stroke:none;fill-rule:nonzero;fill:rgb(42.352942%,67.450982%,28.235295%);fill-opacity:1;" d="M 16.898438 0.0351562 C 16.863281 -0.0351562 16.828125 0.015625 16.789062 0.0507812 C 16.808594 0.402344 16.683594 0.714844 16.488281 1.011719 C 16.273438 1.308594 15.992188 1.535156 15.707031 1.777344 C 14.125 3.121094 12.878906 4.742188 11.882812 6.554688 C 10.558594 8.992188 9.875 11.609375 9.679688 14.363281 C 9.59375 15.355469 10 18.859375 10.320312 19.871094 C 11.191406 22.554688 12.757812 24.804688 14.78125 26.753906 C 15.28125 27.226562 15.8125 27.660156 16.363281 28.078125 C 16.523438 28.078125 16.542969 27.941406 16.578125 27.835938 C 16.648438 27.613281 16.703125 27.386719 16.738281 27.15625 L 17.09375 24.542969 Z M 16.898438 0.0351562 "/>
<path style=" stroke:none;fill-rule:nonzero;fill:rgb(76.078433%,74.901962%,74.901962%);fill-opacity:1;" d="M 17.765625 28.84375 C 17.800781 28.445312 18 28.113281 18.210938 27.78125 C 17.996094 27.695312 17.839844 27.523438 17.714844 27.328125 C 17.605469 27.15625 17.519531 26.945312 17.449219 26.753906 C 17.199219 26.023438 17.148438 25.253906 17.074219 24.507812 L 17.074219 24.054688 C 16.988281 24.121094 16.96875 24.714844 16.96875 24.804688 C 16.917969 25.59375 16.808594 26.378906 16.648438 27.15625 C 16.59375 27.46875 16.558594 27.78125 16.363281 28.0625 C 16.363281 28.097656 16.363281 28.132812 16.378906 28.183594 C 16.699219 29.109375 16.789062 30.050781 16.84375 31.007812 L 16.84375 31.359375 C 16.84375 31.777344 16.824219 31.6875 17.179688 31.828125 C 17.320312 31.878906 17.480469 31.898438 17.625 32.003906 C 17.730469 32.003906 17.746094 31.914062 17.746094 31.84375 L 17.695312 31.269531 L 17.695312 29.664062 C 17.675781 29.386719 17.730469 29.109375 17.765625 28.847656 Z M 17.765625 28.84375 "/>
</g>
</svg>
