<svg width="34" height="34" viewBox="0 0 34 34" fill="none" xmlns="http://www.w3.org/2000/svg">
<g clip-path="url(#clip0_1044_4366)">
<path d="M7.24023 21.441C7.24023 23.388 5.65233 24.9783 3.70503 24.9783C1.758 24.9783 0.167969 23.388 0.167969 21.441C0.167969 19.494 1.75827 17.9037 3.7053 17.9037H7.2405L7.24023 21.441ZM9.02231 21.441C9.02231 19.494 10.6126 17.9037 12.5596 17.9037C14.5067 17.9037 16.097 19.4937 16.097 21.441V30.2956C16.097 32.2426 14.5069 33.8329 12.5596 33.8329C10.6126 33.8329 9.02231 32.2426 9.02231 30.2956V21.441Z" fill="#DE1C59"/>
<path d="M12.5596 7.23961C10.6126 7.23961 9.02231 5.6517 9.02231 3.70441C9.02231 1.75737 10.6126 0.167343 12.5596 0.167343C14.5067 0.167343 16.097 1.75764 16.097 3.70467V7.23987L12.5596 7.23961ZM12.5596 9.02169C14.5067 9.02169 16.097 10.612 16.097 12.559C16.097 14.506 14.5069 16.0963 12.5596 16.0963H3.70503C1.758 16.0963 0.167969 14.5063 0.167969 12.559C0.167969 10.612 1.75827 9.02169 3.7053 9.02169H12.5596Z" fill="#35C5F0"/>
<path d="M26.7591 12.559C26.7591 10.612 28.347 9.02169 30.2943 9.02169C32.2413 9.02169 33.8316 10.612 33.8316 12.559C33.8316 14.506 32.2413 16.0963 30.2943 16.0963H26.7591V12.559ZM24.977 12.559C24.977 14.506 23.3867 16.0963 21.4397 16.0963C19.4926 16.0963 17.9023 14.5063 17.9023 12.559V3.70441C17.9023 1.75737 19.4924 0.167343 21.4397 0.167343C23.3867 0.167343 24.977 1.75764 24.977 3.70467V12.559Z" fill="#2EB57D"/>
<path d="M21.4397 26.7604C23.3867 26.7604 24.977 28.3483 24.977 30.2956C24.977 32.2426 23.3867 33.8329 21.4397 33.8329C19.4926 33.8329 17.9023 32.2426 17.9023 30.2956V26.7604H21.4397ZM21.4397 24.9783C19.4926 24.9783 17.9023 23.388 17.9023 21.441C17.9023 19.494 19.4924 17.9037 21.4397 17.9037H30.2943C32.2413 17.9037 33.8316 19.4937 33.8316 21.441C33.8316 23.388 32.2413 24.9783 30.2943 24.9783H21.4397Z" fill="#EBB02E"/>
</g>
<defs>
<clipPath id="clip0_1044_4366">
<rect width="34" height="34" fill="white"/>
</clipPath>
</defs>
</svg>
