<svg width="34" height="34" viewBox="0 0 34 34" fill="none" xmlns="http://www.w3.org/2000/svg">
<g clip-path="url(#clip0_1179_3056)">
<path d="M18.183 0.0397254C13.2643 -0.290358 8.44197 1.51023 4.96972 4.98814C1.49605 8.46748 -0.300284 13.2856 0.0411329 18.2099C0.664466 27.2114 8.6148 34.0001 18.5343 34.0001H26.9167C30.8225 34.0001 34 30.8225 34 26.9167V17.4817C33.9986 8.30314 27.0513 0.643225 18.183 0.0397254ZM11.1591 19.0996C10.9325 20.3731 9.71555 21.2982 8.26913 21.2982C7.11597 21.2982 6.00672 20.7967 5.26013 19.9949C5.11847 19.8376 5.0278 19.6351 5.0278 19.4084C5.0278 18.9196 5.42447 18.523 5.91322 18.523C6.17247 18.523 6.39913 18.6377 6.56205 18.8148C6.96722 19.2611 7.60755 19.5274 8.27055 19.5274C8.90522 19.5274 9.35288 19.152 9.41805 18.7893C9.50588 18.3006 8.77913 17.9931 8.55388 17.9096C7.48855 17.5171 6.52805 17.0879 6.52805 17.0879C5.67805 16.5467 5.30405 15.7151 5.4273 14.851C5.56047 13.9316 6.23197 13.1821 7.18255 12.896C7.51688 12.7954 7.83988 12.7529 8.14588 12.7529C9.55263 12.7486 10.5953 13.6227 10.6477 13.6666C10.8489 13.8296 10.9863 14.0676 10.9863 14.3466C10.9863 14.8354 10.5896 15.2321 10.1009 15.2321C9.87847 15.2321 9.68155 15.1428 9.52713 15.0082C9.49738 14.9841 8.90805 14.5379 8.18697 14.5266C8.0283 14.5237 7.86113 14.5436 7.69255 14.5931C7.27747 14.7178 7.1953 14.9926 7.17972 15.1046C7.16838 15.1881 7.1613 15.3964 7.36388 15.5324C7.38655 15.5324 8.23372 15.905 9.16588 16.2492C10.8985 16.8881 11.332 18.1419 11.1606 19.1024L11.1591 19.0996ZM21.2486 20.3646C21.2486 20.8534 20.852 21.2501 20.3632 21.2501C19.8745 21.2501 19.4778 20.8534 19.4778 20.3646H19.4736V15.7364L17.6588 17.7027C17.3032 18.0881 16.6941 18.0881 16.3385 17.7027L14.5223 15.735L14.5195 20.3661C14.5195 20.8548 14.1228 21.2515 13.6341 21.2515C13.1453 21.2515 12.7486 20.8548 12.7486 20.3661V13.6369C12.7486 13.1481 13.1453 12.7515 13.6341 12.7515C14.2645 12.7515 14.7277 12.9852 15.0833 13.3918L16.9986 15.5848L18.8871 13.423C19.2596 12.9966 19.798 12.7529 20.3632 12.7515C20.852 12.7515 21.2486 13.1481 21.2486 13.6369L21.2444 20.3434L21.2486 20.3661V20.3646ZM28.9496 19.0996C28.723 20.3731 27.5061 21.2982 26.0596 21.2982C24.9065 21.2982 23.7972 20.7967 23.0506 19.9949C22.909 19.8376 22.8183 19.6351 22.8183 19.4084C22.8183 18.9196 23.215 18.523 23.7037 18.523C23.963 18.523 24.1896 18.6377 24.3526 18.8148C24.7577 19.2611 25.3981 19.5274 26.0611 19.5274C26.6957 19.5274 27.1434 19.152 27.2086 18.7893C27.2964 18.3006 26.5696 17.9931 26.3444 17.9096C25.2791 17.5171 24.3186 17.0879 24.3186 17.0879C23.4685 16.5467 23.0945 15.7151 23.2178 14.851C23.351 13.9316 24.0225 13.1821 24.9731 12.896C25.3074 12.7954 25.6304 12.7529 25.9364 12.7529C27.3431 12.7486 28.3858 13.6227 28.4382 13.6666C28.6394 13.8296 28.7768 14.0676 28.7768 14.3466C28.7768 14.8354 28.3801 15.2321 27.8914 15.2321C27.669 15.2321 27.4721 15.1428 27.3176 15.0082C27.2879 14.9841 26.6985 14.5379 25.9775 14.5266C25.8188 14.5237 25.6516 14.5436 25.4831 14.5931C25.068 14.7178 24.9858 14.9926 24.9702 15.1046C24.9589 15.1881 24.9518 15.3964 25.1544 15.5324C25.1771 15.5324 26.0242 15.905 26.9564 16.2492C28.689 16.8881 29.1225 18.1419 28.9511 19.1024L28.9496 19.0996Z" fill="black"/>
</g>
<defs>
<clipPath id="clip0_1179_3056">
<rect width="34" height="34" fill="white"/>
</clipPath>
</defs>
</svg>
