<svg width="34" height="34" viewBox="0 0 34 34" fill="none" xmlns="http://www.w3.org/2000/svg">
<g clip-path="url(#clip0_1179_3037)">
<path d="M17 34C26.3888 34 34 26.3888 34 17C34 7.61118 26.3888 0 17 0C7.61118 0 0 7.61118 0 17C0 26.3888 7.61118 34 17 34Z" fill="url(#paint0_linear_1179_3037)"/>
<path d="M6.33246 17.8316C8.31974 16.737 10.5381 15.8233 12.6108 14.9051C16.1767 13.401 19.7568 11.923 23.373 10.547C24.0765 10.3125 25.3407 10.0832 25.4647 11.1259C25.3968 12.6018 25.1176 14.069 24.9261 15.5363C24.4399 18.7629 23.8781 21.9784 23.3302 25.1944C23.1414 26.2656 21.7995 26.8202 20.9408 26.1346C18.8773 24.7408 16.7979 23.3605 14.7608 21.9344C14.0934 21.2563 14.7122 20.2825 15.3082 19.7983C17.0078 18.1234 18.8102 16.7003 20.421 14.9389C20.8555 13.8896 19.5717 14.7739 19.1482 15.0448C16.8215 16.6482 14.5517 18.3495 12.0986 19.7586C10.8456 20.4484 9.38515 19.8589 8.13267 19.474C7.00967 19.0091 5.36405 18.5407 6.33234 17.8317L6.33246 17.8316Z" fill="white"/>
</g>
<defs>
<linearGradient id="paint0_linear_1179_3037" x1="12.752" y1="1.4178" x2="4.25198" y2="21.25" gradientUnits="userSpaceOnUse">
<stop stop-color="#37AEE2"/>
<stop offset="1" stop-color="#1E96C8"/>
</linearGradient>
<clipPath id="clip0_1179_3037">
<rect width="34" height="34" fill="white"/>
</clipPath>
</defs>
</svg>
