<?xml version="1.0" encoding="UTF-8"?>
<svg xmlns="http://www.w3.org/2000/svg" xmlns:xlink="http://www.w3.org/1999/xlink" width="34px" height="34px" viewBox="0 0 34 34" version="1.1">
<g id="surface1">
<path style=" stroke:none;fill-rule:nonzero;fill:rgb(35.686275%,41.176471%,61.176473%);fill-opacity:1;" d="M 6.675781 31.421875 C 5.25 29.992188 4.464844 28.09375 4.464844 26.078125 C 4.464844 24.058594 5.25 22.160156 6.675781 20.734375 C 7.265625 20.144531 8.222656 20.144531 8.8125 20.734375 C 9.402344 21.324219 9.402344 22.28125 8.8125 22.871094 C 7.957031 23.726562 7.484375 24.867188 7.484375 26.078125 C 7.484375 27.289062 7.957031 28.425781 8.8125 29.28125 C 10.582031 31.050781 13.457031 31.050781 15.226562 29.28125 L 21.636719 22.871094 C 23.40625 21.101562 26.28125 21.101562 28.050781 22.871094 C 29.816406 24.636719 29.816406 27.515625 28.050781 29.28125 L 23.773438 33.558594 C 23.183594 34.148438 22.226562 34.148438 21.636719 33.558594 C 21.046875 32.96875 21.046875 32.011719 21.636719 31.417969 L 25.914062 27.144531 C 26.503906 26.554688 26.503906 25.597656 25.914062 25.007812 C 25.324219 24.417969 24.363281 24.417969 23.773438 25.007812 L 17.363281 31.417969 C 14.417969 34.367188 9.621094 34.367188 6.675781 31.421875 Z M 6.675781 31.421875 "/>
<path style=" stroke:none;fill-rule:nonzero;fill:rgb(35.686275%,41.176471%,61.176473%);fill-opacity:1;" d="M 23.574219 12.65625 C 23.058594 12 22.109375 11.878906 21.453125 12.390625 L 21.304688 12.507812 L 17.039062 8.242188 L 17.152344 8.09375 C 17.667969 7.4375 17.546875 6.488281 16.890625 5.972656 C 16.230469 5.460938 15.28125 5.582031 14.769531 6.238281 L 4.769531 19.09375 C 4.304688 19.695312 4.355469 20.550781 4.894531 21.089844 L 8.457031 24.652344 C 8.996094 25.191406 9.851562 25.242188 10.453125 24.777344 L 23.308594 14.777344 C 23.964844 14.265625 24.085938 13.316406 23.574219 12.65625 Z M 23.574219 12.65625 "/>
<path style=" stroke:none;fill-rule:nonzero;fill:rgb(17.647059%,25.490198%,45.882353%);fill-opacity:1;" d="M 23.574219 12.65625 C 23.058594 12 22.109375 11.878906 21.453125 12.390625 L 21.304688 12.507812 L 19.171875 10.375 L 6.675781 22.871094 L 8.457031 24.652344 C 8.996094 25.191406 9.851562 25.242188 10.453125 24.777344 L 23.308594 14.777344 C 23.964844 14.265625 24.085938 13.316406 23.574219 12.65625 Z M 23.574219 12.65625 "/>
<path style=" stroke:none;fill-rule:nonzero;fill:rgb(61.960787%,54.901963%,92.54902%);fill-opacity:1;" d="M 27.335938 2.210938 C 24.390625 -0.738281 19.597656 -0.738281 16.652344 2.210938 C 13.703125 5.15625 13.703125 9.949219 16.652344 12.894531 C 19.597656 15.84375 24.390625 15.84375 27.335938 12.894531 C 30.285156 9.949219 30.285156 5.15625 27.335938 2.210938 Z M 27.335938 2.210938 "/>
<path style=" stroke:none;fill-rule:nonzero;fill:rgb(41.568628%,33.725491%,81.176472%);fill-opacity:1;" d="M 27.335938 12.894531 C 30.285156 9.949219 30.285156 5.15625 27.335938 2.210938 L 16.652344 12.894531 C 19.597656 15.84375 24.390625 15.84375 27.335938 12.894531 Z M 27.335938 12.894531 "/>
<path style=" stroke:none;fill-rule:nonzero;fill:rgb(35.686275%,41.176471%,61.176473%);fill-opacity:1;" d="M 27.335938 10.757812 L 18.789062 2.210938 C 18.199219 1.621094 17.242188 1.621094 16.652344 2.210938 C 16.058594 2.800781 16.058594 3.757812 16.652344 4.347656 L 25.199219 12.894531 C 25.789062 13.488281 26.746094 13.488281 27.335938 12.894531 C 27.925781 12.304688 27.925781 11.347656 27.335938 10.757812 Z M 27.335938 10.757812 "/>
<path style=" stroke:none;fill-rule:nonzero;fill:rgb(17.647059%,25.490198%,45.882353%);fill-opacity:1;" d="M 27.335938 10.757812 L 23.0625 6.484375 L 20.925781 8.621094 L 25.199219 12.894531 C 25.789062 13.488281 26.746094 13.488281 27.335938 12.894531 C 27.925781 12.304688 27.925781 11.347656 27.335938 10.757812 Z M 27.335938 10.757812 "/>
<path style=" stroke:none;fill-rule:nonzero;fill:rgb(17.647059%,25.490198%,45.882353%);fill-opacity:1;" d="M 28.050781 22.871094 C 26.28125 21.101562 23.40625 21.101562 21.636719 22.871094 L 15.226562 29.28125 C 14.277344 30.230469 13.011719 30.667969 11.769531 30.601562 L 9.261719 33.109375 C 11.972656 34.167969 15.175781 33.605469 17.363281 31.421875 L 23.773438 25.007812 C 24.363281 24.417969 25.324219 24.417969 25.914062 25.007812 C 26.5 25.597656 26.5 26.554688 25.914062 27.144531 L 21.636719 31.421875 C 21.046875 32.011719 21.046875 32.96875 21.636719 33.558594 C 22.226562 34.148438 23.183594 34.148438 23.773438 33.558594 L 28.050781 29.28125 C 29.816406 27.515625 29.816406 24.636719 28.050781 22.871094 Z M 28.050781 22.871094 "/>
</g>
</svg>
